<?xml version="1.0" encoding="UTF-8"?>
<svg id="Layer_2" data-name="Layer 2" xmlns="http://www.w3.org/2000/svg" viewBox="0 0 678 133.02">
  <defs>
    <style>
      .cls-1 {
        fill: #fff;
      }
    </style>
  </defs>
  <g id="Beyaz">
    <g>
      <g>
        <path class="cls-1" d="M0,26.11V.65h7.25v24.58c0,4.8,2.29,8.34,7.96,8.34,5.29,0,7.96-2.78,7.96-8.34V.65h7.25v24.91c0,9.27-6.16,14.55-15.21,14.55S0,35.43,0,26.11Z"/>
        <path class="cls-1" d="M37.99.65h7.03l16.9,26.49h.11V.65h6.98v38.87h-7.09l-16.84-26.55h-.11v26.55h-6.98V.65Z"/>
        <path class="cls-1" d="M89.5,26.76v-12.43c0-9.21,7.03-14.34,15.54-14.34,7.41,0,14.83,3.65,14.83,12.32v1.2h-6.87v-.55c0-5.07-4.42-6.54-7.96-6.54s-8.34,1.96-8.34,7.52v12.43c0,4.69,4.03,7.36,8.61,7.36,4.09,0,7.69-1.96,7.69-7.03v-.93h-10.03v-6.54h16.9v8.12c0,8.67-7.14,12.81-14.55,12.81-8.45,0-15.81-4.74-15.81-13.41Z"/>
        <path class="cls-1" d="M126.4,32.05V.65h6.65v31.34c0,1.25.6,2.29,2.4,2.29,1.2,0,1.85-.11,3.05-.22v5.07c-1.42.38-3.6.76-5.34.76-6.6,0-6.76-5.34-6.76-7.85Z"/>
        <path class="cls-1" d="M141.88,29.22v-6.38c0-7.58,6.43-11.72,12.59-11.72,6.76,0,12.81,4.47,12.81,11.61v5.72c0,7.58-6.43,11.72-12.59,11.72-6.76,0-12.81-3.82-12.81-10.96ZM160.52,29.05v-6.92c0-3.38-2.62-5.34-6.05-5.34-2.78,0-5.83,1.47-5.83,5.51v6.87c0,3.38,2.62,5.4,6.05,5.4,2.78,0,5.83-1.47,5.83-5.51Z"/>
        <path class="cls-1" d="M179.71,36.74h-.16v2.78h-6.38V.65h6.65v14.17h.06c2.07-2.78,5.18-3.76,7.69-3.76,6.1,0,11.01,3.87,11.01,11.01v6.76c0,7.58-5.56,11.34-11.77,11.34-3.11,0-5.67-1.58-7.09-3.43ZM191.81,29.05v-6.92c0-3.38-2.62-5.34-6.05-5.34-2.78,0-5.94,1.91-5.94,5.94v6.43c0,3.38,2.73,5.4,6.16,5.4,2.78,0,5.83-1.47,5.83-5.51Z"/>
        <path class="cls-1" d="M202.65,31.62c0-5.4,4.91-8.61,10.3-8.61h7.41v-2.56c0-2.94-1.96-4.2-5.34-4.2-2.89,0-5.02.98-5.02,2.78v.98h-6v-.76c0-6.11,5.83-8.18,11.07-8.18,6.21,0,11.94,2.07,11.94,8.88v13.57c0,1.25.16,5.4.49,6h-6.59c-.11-.44-.22-2.13-.27-2.56h-.11c-2.45,2.56-4.58,3.11-8.18,3.11-5.78,0-9.7-3.16-9.7-8.45ZM220.37,29.22v-1.36h-6.54c-2.84,0-4.69.98-4.69,3.43s1.91,3.54,5.02,3.54c5.34,0,6.21-2.62,6.21-5.61Z"/>
        <path class="cls-1" d="M233.94,32.05V.65h6.65v31.34c0,1.25.6,2.29,2.4,2.29,1.2,0,1.85-.11,3.05-.22v5.07c-1.42.38-3.6.76-5.34.76-6.6,0-6.76-5.34-6.76-7.85Z"/>
        <path class="cls-1" d="M263.7,26.76v-12.43c0-9.21,7.03-14.34,15.54-14.34,7.41,0,14.83,4.14,14.83,12.81v1.2h-6.87v-.54c0-5.07-4.42-7.03-7.96-7.03s-8.34,1.96-8.34,7.52v12.43c0,4.69,4.03,7.36,8.61,7.36,3.54,0,7.69-1.96,7.69-7.03v-.55h6.87v1.2c0,8.67-7.14,12.81-14.55,12.81-8.45,0-15.81-4.74-15.81-13.41Z"/>
        <path class="cls-1" d="M299.02,29.22v-6.38c0-7.58,6.43-11.72,12.59-11.72,6.76,0,12.81,4.47,12.81,11.61v5.72c0,7.58-6.43,11.72-12.59,11.72-6.76,0-12.81-3.82-12.81-10.96ZM317.66,29.05v-6.92c0-3.38-2.62-5.34-6.05-5.34-2.78,0-5.83,1.47-5.83,5.51v6.87c0,3.38,2.62,5.4,6.05,5.4,2.78,0,5.83-1.47,5.83-5.51Z"/>
        <path class="cls-1" d="M330.25,11.61h6.43v3.38h.11c1.91-2.56,4.63-3.92,7.9-3.92,3.71,0,6.21,1.47,7.96,4.14h.06c1.96-2.51,4.8-4.14,8.61-4.14,5.18,0,9.76,3,9.76,9.81v18.64h-6.65v-16.24c0-3.76-1.31-6.38-5.07-6.38s-5.34,2.89-5.34,6.54v16.08h-6.65v-16.14c0-3.54-1.04-6.49-5.07-6.49-2.34,0-5.4,1.58-5.4,6.21v16.41h-6.65V11.61Z"/>
        <path class="cls-1" d="M378.22,11.61h6.49v3.22h.05c2.18-2.62,5.34-3.76,7.85-3.76,6.1,0,11.01,3.87,11.01,11.01v6.76c0,7.58-5.29,11.34-11.5,11.34-3.11,0-5.67-1.58-7.09-3.43h-.16v13.3h-6.65V11.61ZM396.86,29.05v-6.92c0-3.38-2.62-5.34-6.05-5.34-2.78,0-5.94,1.85-5.94,5.89v6.49c0,3.38,2.73,5.4,6.16,5.4,2.78,0,5.83-1.47,5.83-5.51Z"/>
        <path class="cls-1" d="M407.7,31.62c0-5.4,4.91-8.61,10.3-8.61h7.41v-2.56c0-2.94-1.96-4.2-5.34-4.2-2.89,0-5.02.98-5.02,2.78v.98h-6v-.76c0-6.11,5.83-8.18,11.07-8.18,6.21,0,11.94,2.07,11.94,8.88v13.57c0,1.25.16,5.4.49,6h-6.59c-.11-.44-.22-2.13-.27-2.56h-.11c-2.45,2.56-4.58,3.11-8.18,3.11-5.78,0-9.7-3.16-9.7-8.45ZM425.42,29.22v-1.36h-6.54c-2.84,0-4.69.98-4.69,3.43s1.91,3.54,5.02,3.54c5.34,0,6.21-2.62,6.21-5.61Z"/>
        <path class="cls-1" d="M437.68,28.78v-5.45c0-7.85,5.89-12.21,12.81-12.21,6.05,0,12.21,3.54,12.21,10.96v.54h-6.49v-.54c0-3.82-3-5.34-5.72-5.34s-5.89,1.53-5.89,5.72v6.54c0,3.54,2.56,5.61,6.1,5.61,2.73,0,5.51-1.53,5.51-5.34v-.27h6.49v.27c0,7.41-5.94,10.9-11.99,10.9-6.87,0-13.03-3.98-13.03-11.39Z"/>
        <path class="cls-1" d="M468.59,32.92v-16.03h-3.76v-5.29h3.76V3.16h6.65v8.45h6.05v5.29h-6.05v14.44c0,2.07,1.09,2.67,2.62,2.67,1.36,0,2.13-.05,3.43-.27v5.67c-1.47.38-3.92.55-4.91.55-4.31,0-7.79-2.07-7.79-7.03Z"/>
        <path class="cls-1" d="M508.43,6.87h-11.17V.65h29.54v6.21h-11.17v32.65h-7.2V6.87Z"/>
        <path class="cls-1" d="M530.45,29.44V11.61h6.65v16.19c0,4.2,1.85,6.43,5.23,6.43,3.65,0,5.72-2.29,5.72-7.03v-15.59h6.65v27.91h-6.43v-3.43h-.16c-1.85,2.67-4.74,3.98-7.85,3.98-6.27,0-9.81-4.03-9.81-10.63ZM533.89.22h6.48v7.14h-6.48V.22ZM544.79.22h6.49v7.14h-6.49V.22Z"/>
        <path class="cls-1" d="M561.25,11.61h6.49v4.63h.11c1.64-2.94,5.78-5.18,9.1-5.18.71,0,1.53,0,2.23.16v6.11c-.87-.16-1.58-.16-2.51-.16-5.02,0-8.78,2.89-8.78,8.07v14.28h-6.65V11.61Z"/>
        <path class="cls-1" d="M583.81.65h6.65l.05,22.46,10.19-11.5h7.9l-9.98,10.52,10.41,17.39h-7.47l-7.47-12.76-3.65,3.92v8.83h-6.65V.65Z"/>
        <path class="cls-1" d="M613.52.27h6.65v7.09h-6.65V.27ZM613.52,11.61h6.65v27.91h-6.65V11.61Z"/>
        <path class="cls-1" d="M626.82,49.88v-5.61c1.2.16,2.29.27,3.16.27,1.69,0,2.73-1.04,3.22-2.34l1.2-3.33-10.3-27.26h7.25l6.54,19.08h.11l6.27-19.08h6.81l-11.83,32.54c-1.58,4.42-4.8,6.05-9.1,6.05-.65,0-2.18-.11-3.32-.33Z"/>
        <path class="cls-1" d="M653.15,28.78v-5.45c0-7.85,5.89-12.21,12.81-12.21,6.05,0,12.05,3.54,12.05,10.96v5.4h-17.93v1.53c0,3.54,2.89,5.61,6.43,5.61,2.23,0,4.58-1.47,6.05-3.6l5.12,2.94c-2.18,4.36-6.6,6.21-11.5,6.21-6.87,0-13.03-3.76-13.03-11.39ZM671.35,22.84v-.76c0-3.82-2.67-5.34-5.4-5.34s-5.89,1.53-5.89,5.72v.38h11.28Z"/>
      </g>
      <g>
        <path class="cls-1" d="M3.11,122.89l18.67-21.69c4.53-5.15,8-9.15,8-14.22v-1.33c0-3.47-1.87-6.4-7.02-6.4-4.89,0-7.02,3.2-7.02,7.55v1.87H1.42v-3.11c0-12,9.51-18.31,22.49-18.31,13.95,0,21.15,8,21.15,18.75s-9.33,19.29-16.18,26.66l-6.04,6.58v.18h22.75v12.44H3.11v-8.98Z"/>
        <path class="cls-1" d="M54.57,113.29v-25.86c0-14.13,12.09-20,23.91-20s23.82,5.78,23.82,20.26v25.42c0,13.87-12.44,19.82-23.73,19.82s-24-5.16-24-19.64ZM86.48,112.85v-25.95c0-4-2.84-7.2-7.91-7.2s-8.09,3.29-8.09,7.47v25.86c0,4,2.67,7.55,8.09,7.55s7.91-3.82,7.91-7.73Z"/>
        <path class="cls-1" d="M113.06,122.89l18.66-21.69c4.53-5.15,8-9.15,8-14.22v-1.33c0-3.47-1.87-6.4-7.02-6.4-4.89,0-7.02,3.2-7.02,7.55v1.87h-14.31v-3.11c0-12,9.51-18.31,22.49-18.31,13.95,0,21.15,8,21.15,18.75s-9.33,19.29-16.18,26.66l-6.04,6.58v.18h22.75v12.44h-42.48v-8.98Z"/>
        <path class="cls-1" d="M165.05,117.2v-3.91h14.49v1.51c0,3.64,3.02,6.04,7.82,6.04s7.55-2.58,7.55-8.35v-4.44c0-4.44-3.55-6.75-7.73-6.75-3.29,0-5.69,1.6-7.29,3.38l-13.33-1.78,1.69-34.4h38.22v12.8h-26.13l-.53,12.8c4-2.76,8.53-3.73,13.33-3.73,7.56,0,17.06,4.27,17.06,15.55v7.47c0,12.98-11.02,19.55-23.2,19.55-12.98,0-21.95-6.13-21.95-15.73Z"/>
        <path class="cls-1" d="M239,121.38l29.42-40.17h-28.18v-12.71h47.82v11.11l-28.53,39.29h28.71v12.98h-49.24v-10.49Z"/>
        <path class="cls-1" d="M297.75,66.45h14.67v13.07h-14.67v-13.07ZM297.75,85.12h14.67v46.75h-14.67v-46.75Z"/>
        <path class="cls-1" d="M323.27,85.12h14.4v7.73h.09c2.49-4.53,8.44-8.53,14.22-8.53,1.33,0,3.2.09,4.62.44v12.62c-2.22-.36-4.89-.53-6.22-.53-6.13,0-12.44,2.58-12.44,10.67v24.35h-14.67v-46.75Z"/>
        <path class="cls-1" d="M361.22,85.12h15.73l8.98,29.6h.27l9.06-29.6h13.6l-16.09,46.93h-14.93l-16.62-46.93Z"/>
        <path class="cls-1" d="M412.77,113.74v-8.62c0-14.22,11.2-20.98,22.75-20.98,10.67,0,20.71,6.31,20.71,19.02v8.98h-28.53v1.96c0,5.24,5.07,7.64,9.87,7.64,4.09,0,9.87-2.22,12.18-4.27l5.6,8.27c-4.8,4.89-12,7.29-19.64,7.29-11.73,0-22.93-5.69-22.93-19.29ZM442.37,103.6v-1.51c0-4.89-3.29-7.11-7.2-7.11s-7.47,2.31-7.47,7.38v1.24h14.67Z"/>
        <path class="cls-1" d="M462.9,125.74l7.64-8.8c3.29,3.2,8.35,5.6,13.42,5.6,3.38,0,7.2-.89,7.2-3.91,0-2.76-2.13-3.47-5.87-4.18-.27-.09-3.55-.53-8.27-1.87-7.47-1.78-12.09-5.51-12.09-12.53,0-9.24,8.09-16,19.64-16,8.98,0,14.13,1.78,19.38,6.22l-8.36,8.09c-3.02-2.76-7.11-4.09-10.75-4.09-3.91,0-6.22,1.16-6.22,3.73s3.38,2.93,6.58,3.56l8.09,1.69c8.35,1.78,12.89,6.67,12.89,13.33,0,11.38-11.64,16.35-21.51,16.35-8.44,0-15.55-1.42-21.77-7.2Z"/>
        <path class="cls-1" d="M514.98,66.45h14.67v13.07h-14.67v-13.07ZM514.98,85.12h14.67v46.75h-14.67v-46.75Z"/>
      </g>
      <polygon class="cls-1" points="555.85 65.2 555.85 132.58 614.03 98.89 555.85 65.2"/>
      <polygon class="cls-1" points="587.53 65.2 587.53 80.67 619.52 98.78 587.53 117.21 587.53 132.58 645.14 98.89 587.53 65.2"/>
      <polygon class="cls-1" points="618.25 65.2 618.25 80.67 650.24 98.78 618.25 117.21 618.25 132.58 675.86 98.89 618.25 65.2"/>
    </g>
  </g>
</svg>