<?xml version="1.0" encoding="UTF-8"?>
<svg id="Layer_2" data-name="Layer 2" xmlns="http://www.w3.org/2000/svg" viewBox="0 0 955 232.74">
  <defs>
    <style>
      .cls-1 {
        fill: #aecfe6;
      }

      .cls-2 {
        fill: #1e3250;
      }

      .cls-3 {
        fill: #4b6c8a;
      }

      .cls-4 {
        fill: #699cc6;
      }
    </style>
  </defs>
  <g id="Mavi">
    <g>
      <g id="logo_1" data-name="logo 1">
        <g id="logo">
          <path class="cls-2" d="M123.23,14.31c-1.68,3.73-1.15,6.84,1,7.98,2.1,1.09,4.91-.44,6.87-3.93,1.82-3.34,1.66-6.49-.98-7.86-2.79-1.46-5.23.17-6.89,3.81M120.28,13.5c2.08-4.48,6.22-6.14,10.66-3.83,4.13,2.1,5.06,5.96,2.97,9.76-2.26,4.16-6.47,5.86-10.59,3.79-3.75-1.88-4.88-5.73-3.03-9.72M177.69,83.78l-12.4.92-.61,2.52-.61.05c-.13-4.02-.6-7.8-.6-7.8l.64-.05.96,2.4,12.4-.95-.28-3.16-3.19-.87-.07-.89,4.24-.32s.97,6.69.99,13.23l-4.21.32-.07-.92,3.02-1.37-.2-3.11ZM163.6,73.13l3.3.34.26.95-3.61.77-.18-.3c-1.04-1.85-1.54-2.89-1.89-4.19-1.26-4.51.75-7.7,5.21-9.17,4.69-1.55,8.54.85,9.88,5.79.37,1.34.54,2.99.55,4.83l-3.65.95-.25-.97,2.65-1.85c0-.39-.07-.87-.21-1.39-1.16-4.19-4.24-5.81-8.09-4.5-3.78,1.28-5.5,3.81-4.53,7.35.14.51.32.8.55,1.32l.03.07ZM161.35,50.9l1.69,3.46,3.9-3.84-5.58.38ZM160.2,51.04l-4.62.34.07,1.89-.59.28c-1.16-2.13-2.55-4.4-2.55-4.4l.58-.32,1.47,1.21,15.32-.86.54,1.22-10.3,10.87.06,1.88-.57.27c-1.24-3.06-2.46-5.88-2.46-5.88l.57-.28,1.47,1.18,3.1-3.28-2.08-4.13ZM155.38,40.74c.72,1,1.21,1.38,1.93,1.55.95.22,2.05.08,3-.61.87-.67,1.41-1.4,1.54-2.24.11-.81-.05-1.43-.72-2.3l-.89-1.12-5.3,4.15.44.57ZM154.16,40.75l-3.85,2.92.48,1.99-.49.37c-1.93-2.61-4.03-5.25-4.03-5.25l.51-.37,1.7.97,9.58-7.49-.44-1.93.52-.38,3.95,5.14c1.33,1.78,1.74,2.87,1.77,4.14,0,1.27-.56,2.37-1.66,3.18-2.25,1.62-5.05.81-7.12-2.02l-.92-1.27ZM141.56,29.7l10.37-4.72,3.38,3.42-.42.48-1.97-.66-8.51,8.75.96,1.87-.44.48c-2.25-2.29-4.48-4.43-4.48-4.43l.41-.51,1.88.61,6.83-7.27-11.41,5.15-.42-.39,3.43-12.07-6.24,7.82.86,1.8-.43.48-4.31-3.12.41-.46,1.95.62,7.8-9.43-.91-1.84.43-.48,3.97,2.92-3.14,11.02ZM113.29,17.5l1.94-2.65.97.27-1.14,3.5h-.36c-2.12-.05-3.27-.16-4.57-.53-4.41-1.21-6.34-4.65-5.32-9.15,1.05-4.71,4.38-6.93,10.06-5.61,1.34.31,2.71.96,4.29,1.87l-.98,3.58-.98-.22-.25-3.25s-.51-.26-1.16-.45c-4.84-1.28-7.24,1.09-8.07,4.76-.87,3.82.68,6.71,4.1,7.64.51.12.84.21,1.47.24M87.9,13.75l.12-12.25-1.88-.82.02-.62c3.48-.11,6.68-.05,6.68-.05v.61s-1.9.78-1.9.78l-.14,12.6,3.54.08,1.44-2.74h.93s-.37,3.91-.37,3.91c0,0-5.7-.25-10.35-.12v-.61s1.92-.77,1.92-.77ZM73.08,10.02l3.8-.69-2.63-4.79-1.17,5.48ZM72.89,11.16l-.85,4.57,1.86.47.12.61-4.95,1.17-.1-.6,1.52-1.05,3.39-14.97,1.1-.19,7.77,12.9,1.81.46.1.63-6.46.88-.11-.6,1.55-1.1-2.22-4.02-4.53.87ZM61.16,19.88l.8-.38c1.2-.48,1.69-.84,2.11-1.57.38-.76.39-1.58.04-2.48-.74-1.86-2.26-2.45-4.29-1.66l-1.04.47,2.39,5.63ZM58.42,13.3l.91-.4c1.68-.68,2.44-2.26,1.76-3.97-.67-1.71-2-2.33-3.71-1.61l-1.26.61,2.3,5.37ZM58.35,20.76l-4.84-11.33-2.05-.05-.24-.58,6.83-2.85c1.61-.65,2.64-.73,3.72-.33.96.33,1.64.99,2,1.91.76,1.91-.29,3.77-2.72,5.1,2.97-1.06,4.98-.45,5.85,1.75.45,1.15.3,2.45-.37,3.41-.66,1-1.63,1.65-3.56,2.42l-5.87,2.57-.22-.58,1.46-1.44ZM41.62,23.29c2.38,3.34,5.34,4.46,7.4,3.15,2-1.27,2.08-4.47.04-7.91-1.95-3.28-4.78-4.7-7.27-3.11-2.66,1.7-2.49,4.61-.17,7.87M39.45,25.42c-2.82-4.03-2.18-8.44,2.03-11.14,3.92-2.48,7.7-1.33,9.95,2.37,2.46,4.05,1.8,8.53-2.05,11.03-3.52,2.32-7.42,1.35-9.93-2.25M35.17,37.5l-8.64-8.73-1.91.76-.46-.45,4.8-4.68.45.42-.79,1.91,8.77,8.94,2.74-2.67-.95-2.94.67-.68,2.48,3.01s-3.76,3.58-7.52,7.46l-.44-.46.78-1.87ZM28.96,39.15l3.4,2.47c-.81,2.07-1.4,3.34-2.25,4.54-2.76,3.93-6.71,4.67-10.59,1.94-3.92-2.74-5.18-6.7-1.78-11.38.75-1.05,1.85-2.14,3.31-3.48l.29-.25,3,2.17-.65.93-3-.83c-.4.25-.72.58-1.02.95-2.92,3.66-2.01,6.96,1.57,9.45,3.2,2.22,6.48,1.76,8.54-1.21.38-.56.43-.93.43-.93l-2.96-2.13-1.77,1.09-.52-.35,3.89-5.33.52.34-.44,2.01ZM7.57,65.65c3.28,1.07,6.56,2.15,9.84,3.22.44-.49.88-.98,1.32-1.47.2.07.4.14.6.2-.55,1.64-1.08,3.27-1.6,4.92-.2-.06-.4-.12-.6-.19-.06-.68-.12-1.37-.17-2.05-3.87-1.25-7.74-2.49-11.61-3.74-.46.55-.9,1.09-1.36,1.65-.2-.06-.4-.13-.6-.19.47-1.47.94-2.94,1.43-4.4,4.07-1.49,8.13-2.88,12.19-4.19-2.74-.98-5.49-1.96-8.24-2.94-.46.49-.91.99-1.37,1.49-.2-.07-.4-.14-.59-.21.59-1.69,1.2-3.38,1.82-5.07.2.07.39.15.59.22.02.71.04,1.42.06,2.13,4.34,1.57,8.68,3.14,13.02,4.71-.13.36-.26.72-.39,1.08-4.79,1.5-9.57,3.11-14.34,4.85M2.69,83.55c3.03.27,6.07.54,9.1.81,2.43.22,3.66-.74,3.89-3.04.11-1.08-.03-1.93-.41-2.59-.56-.93-1.39-1.34-3.05-1.52-2.93-.33-5.86-.65-8.79-.98-.33.62-.67,1.25-1,1.88-.2-.02-.42-.04-.63-.07.2-1.91.42-3.82.65-5.73.21.03.42.05.63.08.18.69.36,1.39.55,2.08,2.79.33,5.58.65,8.38.98,2.11.24,3.33.99,4.13,2.41.64,1.19.88,2.55.72,4.21-.35,3.6-2.23,5.47-5.29,5.23-3.04-.24-6.08-.49-9.13-.73-.32.64-.63,1.29-.94,1.93-.21-.02-.42-.03-.63-.05.17-2.31.36-4.61.58-6.91.21.02.42.04.63.06.2.65.41,1.3.61,1.95M165.13,133.29c10.29-8.77,5.92-26.31,5.92-26.31-1.18,5.58-7.33,15.78-8.8,18.9-1.88,3.98-2.53,8.61-2.98,10.49-.46,1.89-.92,3.41-.92,3.41.74-1.06,4.81-4.82,6.77-6.49M125.7,167.89c-9.99-4.07-20.4-9.23-32.45-6.78-1.37.25-2.48.54-3.67.54s-2.29-.29-3.65-.54c-12.07-2.45-22.48,2.71-32.47,6.78-7.46,2.73-17.23,2.3-23.8-1.94,3.24,3.8,7.59,6.17,12.08,7.76,8.34,3.1,18.24.99,25.14-3.52,5.91-3.11,11.01-9.24,18.8-6.93-7.94,3.47-15.18,8.3-21.75,14.51l4.11,3.17s7.71-10.35,21.53-16.58c13.83,6.23,21.54,16.58,21.54,16.58l4.12-3.17c-6.57-6.21-13.83-11.04-21.76-14.51,7.79-2.31,12.89,3.81,18.8,6.93,6.92,4.51,16.81,6.62,25.15,3.52,4.48-1.59,8.83-3.96,12.08-7.76-6.57,4.24-16.33,4.67-23.8,1.94M141.68,155.2c6.48-2.54,14.03-2,19.79-6.57,6.08-4.8,11.84-12.25,13.01-20.74-4.32,11.54-15.11,12.5-22.36,19.53-1.33,1.39-2.72,2.6-4.22,3.43l-.09-.11c1.66-1.78,3.6-3.81,4.76-6.11,4.24-6.98,2.74-16.75,5.91-24.27-2.89,4.1-5.5,8.33-7.24,12.97-2.58,7.57-3.59,16.12-9.57,21.85M14.96,133.29c1.96,1.67,6.02,5.43,6.77,6.49,0,0-.46-1.52-.92-3.41-.46-1.87-1.1-6.51-2.97-10.49-1.48-3.13-7.62-13.32-8.8-18.9,0,0-4.36,17.54,5.92,26.31M139.72,165.44c8.04,0,20.31-4.01,26.25-14.79,0,0-5.19,7.68-25.29,7.68-5.03,0-14.35,1.95-14.35,1.95-1.04.23-1.52-.03-1.52-.03,0,0,.6-.31,3.45-1,3.28-.81,7.05-2.75,9.38-6.17,3.35-4.92,7.35-13.08,8.23-13.64-7.02,4.36-11.87,9.72-18.21,15.02-4.82,4.01-9.56,5.04-15.18,6.29,0,0,.7.31,1.65.31,5.51,0,14.14,4.4,25.6,4.4M65.99,161.04c.95,0,1.64-.31,1.64-.31-5.62-1.25-10.35-2.28-15.16-6.29-6.36-5.29-11.21-10.66-18.21-15.02.86.56,4.88,8.72,8.23,13.64,2.32,3.42,6.09,5.37,9.38,6.17,2.84.69,3.44,1,3.44,1,0,0-.48.26-1.49.03,0,0-9.33-1.95-14.38-1.95-20.09,0-25.3-7.68-25.3-7.68,5.94,10.78,18.21,14.79,26.26,14.79,11.45,0,20.09-4.4,25.6-4.4M5.61,127.89c4.31,11.54,15.1,12.5,22.35,19.53,1.34,1.39,2.73,2.6,4.23,3.43l.09-.11c-1.68-1.78-3.61-3.81-4.77-6.11-4.23-6.98-2.73-16.75-5.91-24.27,2.87,4.1,5.49,8.33,7.24,12.97,2.58,7.57,3.58,16.12,9.58,21.85-6.49-2.54-14.05-2-19.82-6.57-6.06-4.8-11.83-12.25-13-20.74M92.47,107.85c3.97-.2,14.15-.91,24.43-4.89,1.39-.54,1.71-1.19,1.71-2.25,0-.27,0-.56-.06-.86-1.02-7.83-2.89-15.75-5.54-23.54-.36-1.02-.54-1.19-.84-1.19-.18,0-.45.06-.85.21-5.66,1.88-11.9,2.94-18.52,3.17-1.26.04-1.66.93-1.65,1.83.04,4.07.13,10.48.13,19.1,0,2.18,0,5.11,0,7.24,0,0-.03.67.25.97.17.17.5.23.95.2M68.2,71.27c-.35.76-.19.99-.19.99.09.16.34.24.34.24,4.28,1.4,12.48,2.77,18.22,2.77.64,0,1-.12,1.23-.33.24-.22.39-.69.4-1.47.15-7.94.36-16.21.84-24.31-2.47-.04-5.47-.48-7.57-.91-5.31,6.83-9.72,14.5-13.28,23.01M88.09,80.3c0-1.18-.59-1.78-1.62-1.85-6.64-.31-13.13-1.53-18.75-3.52-.28-.1-.49-.16-.61-.16-.2.02-.32.08-.49.55-5.25,13.17-6.3,27.39-6.3,27.39-.06.67.11.8.58,1.01,0,0,11.13,4.24,25.39,4.24,0,0,.99-.03,1.25-.29.36-.36.4-.63.39-1.77.04-7.02.18-25.6.18-25.6M117.85,134.57c-.99,2.08-2.18,4.05-3.47,5.88,6.77-3.38,14.49-9.95,19.69-16.7-4.04,3.25-8.68,6.04-13.86,8.27-1,.42-1.89,1.6-2.36,2.55M142.39,98.97c0,3.91-.39,7.74-1.12,11.37,3.16-5.46,5.72-13.35,5.72-22.53,0-2.57-.2-5.23-.65-7.97-.55,2.71-1.45,5.44-3,7.93-1.02,1.7-1.41,2.87-1.3,4.02.33,3.81.34,7.18.34,7.18M128.61,57c.99-2.54,1.18-6.03.11-8.6-1-2.37-4.19-4.77-4.19-4.77-4.83-3.76-10.28-6.13-12.83-7.13.47.8.72,1.62.72,2.48,0,1.46-.68,2.93-1.96,4.41,6.37,3.69,11.77,8.1,16.43,13.5,0,0,.74.93,1.16.9.31-.04.56-.78.56-.78M58.26,101.63c.55-8.82,2.95-18.17,6.36-27.01.08-.2.11-.36.11-.47-.01-.27-.14-.43-.63-.66-5.57-2.45-9.87-5.77-12.63-9.4,0,0-.17-.21,0-.36.16-.14.35.04.35.04,3.13,3.07,7.79,5.64,13.13,7.63.23.08.39.13.53.13.23,0,.41-.14.79-.94,3.6-8.35,8.33-16.18,13.66-22.7-4.49-1.09-9.08-3.5-10.22-6.16,0,0-.14-.29.06-.4.26-.13.44.16.44.16,5,5.42,19.5,5.06,19.5,5.06,6.06,0,18.64-2.12,18.64-7.21,0-4.62-6.67-7.03-18.79-7.19-36.67,0-56.31,31.75-56.31,56.95,0,30.42,25.84,56.94,55.66,56.94-.03-.49-.38-7.15-.38-7.15-.04-.74-.21-.97-1.12-1.08,0,0-13.02-1-17.29-3.19-.16-.11-.07-.28.15-.23,0,0,8.78,1.5,17.12,1.51,0,0,.94.05.94-1,0-.94-.37-21.6-.37-21.6-.06-1.55-.3-1.81-1.79-1.93-9.06-.43-17.9-2.35-25.56-5.55-.21-.07-.31-.1-.41-.05-.17.08-.17.41-.17.41-.68,9.54.39,18.89.39,18.89.04.16-.02.24-.17.25-.17.03-.21-.16-.21-.16-1.37-5.14-2.05-10.76-2.06-16.7,0-.43.04-2.85.04-2.85,0-.64-.26-1.05-.85-1.34-3.66-1.79-6.87-4.05-9.75-6.35,0,0-.21-.19-.03-.38.14-.13.31-.02.31-.02,2.97,1.92,6.37,3.52,9.91,4.98l.4.02c.2-.14.2-.42.23-.88M140.72,83.85c3.59-6.27,3.59-11.4,3.59-11.4,0-.32-.03-.61-.06-.81-1.66-7.15-5.39-13.92-11.14-20.13.1.6.13,1.18.13,1.78,0,2.18-.49,4.42-1.49,6.72-.36.84-.51,1.37-.51,1.79,0,.44.2.72.48,1.25,0,0,5.72,7.88,9,20.8M138.01,95.08c-.03-.19-.2-.01-.2-.01-2.52,2.5-7.15,5.94-12.57,8.69-1.75.91-1.94,1.56-1.96,3.07.09,8.73-.96,15.48-2.85,21.17,0,0-.16.4.35.14.5-.25,8.44-4.04,13.85-9.53,1.84-1.78,3.25-4.54,3.55-7.36,1.08-9.68-.17-16.18-.17-16.18M115.85,134.01c0-.18-.17-.15-.17-.15-.17,0-.43.07-1.07.25-9.47,3-17.72,3.72-23.01,3.78-.74.03-.94.24-1.01,1.12l-.42,7.01s10.66.25,21.58-4.35c1.49-2.03,2.8-4.36,3.86-6.92.12-.27.21-.52.24-.74M110,71.81c.44-.17.72-.29.86-.68.13-.38-.2-1.16-.2-1.16-3.35-8.2-7.45-15.67-11.71-21.52-2.31.42-6.84.74-8.47.73.25,8.29.45,16.51.57,24.44,0,.71.13,1.11.35,1.29.16.15.52.25.91.25,5.44,0,13.21-1.68,17.69-3.35M115.98,69.25c3.41-1.81,6.56-4,8.6-6.07.43-.44.61-.83.61-1.26s-.2-.94-.67-1.61c-4.63-6.38-10.09-11.5-16.04-15.29-1.7,1.14-4.39,2.22-7.25,2.92,4.92,5.93,9.18,12.77,12.71,20.36.36.76.59,1.19.85,1.26.33.12.82-.11,1.18-.32M119.35,108.59s.03-1.35-.45-1.67c-.43-.29-1.51.14-1.51.14-7.58,2.69-15.86,4.11-24.57,4.37-1.65.11-1.56.49-1.64,1.79-.07,7.66-.23,14.9-.43,21.45,0,0-.05.67.18.92.21.2.86.17.86.17,8.66-.56,16.86-2.41,24.4-5.49,1.12-.48,1.3-1.14,1.61-2.4,2.05-8.25,1.55-19.29,1.55-19.29M123.08,99.73c-.36-.31-.5-1.79-.5-1.79-.96-7.68-2.94-15.4-5.82-22.98-.17-.4-.27-.72-.27-.99,0-.39.2-.73,1.07-1.18,3.87-1.84,7.04-4.02,9.44-6.44.38-.39.67-.54.81-.52h.02c.15,0,.4.19.69.68,3.49,6.1,6.14,12.8,7.9,19.92.19.78.29,1.39.29,1.92,0,1.03-.35,1.7-1.28,2.63-2.35,2.35-6.46,5.68-10.87,8.33-.09.05-1.16.7-1.47.42"/>
          <g>
            <path class="cls-2" d="M0,207.59h1.78l10.59,16.53h.06v-16.53h1.64v19.54h-1.7l-10.7-16.78h-.06v16.78H0v-19.54Z"/>
            <path class="cls-2" d="M17.62,221.98v-2.96c0-3.75,2.44-5.83,5.69-5.83,3.04,0,5.25,1.86,5.25,5.36v2h-9.28v1.62c0,2.41,1.53,3.94,4.16,3.94,1.75,0,2.9-.85,3.64-1.75l1.2.77c-1.26,1.81-3.15,2.35-4.95,2.35-3.34,0-5.72-1.75-5.72-5.5ZM26.98,219.41v-.93c0-2.14-1.18-3.94-3.8-3.94-2.49,0-3.89,1.94-3.89,4.13v.74h7.69Z"/>
            <path class="cls-2" d="M32.99,224.42v-9.58h-2.55v-1.31h2.55v-4.3h1.62v4.3h4.05v1.31h-4.05v9.14c0,1.48.74,1.94,2.13,1.94.71,0,1.42-.14,2.08-.3v1.39c-.88.27-1.97.36-2.55.36-1.7,0-3.28-.66-3.28-2.96Z"/>
            <path class="cls-2" d="M40.7,213.5h1.7l3.42,11.63h.03l3.61-11.63h1.56l3.47,11.6h.03l3.53-11.6h1.67l-4.4,13.68h-1.62l-3.48-11.6h-.06l-3.58,11.6h-1.62l-4.27-13.68Z"/>
            <path class="cls-2" d="M61.55,222.25v-3.67c0-3.56,2.41-5.39,5.53-5.39,3.36,0,5.53,1.92,5.53,5.36v3.53c0,3.53-2.33,5.39-5.47,5.39-3.34,0-5.58-1.78-5.58-5.23ZM70.99,222.12v-3.69c0-2.22-1.23-3.86-3.91-3.86s-3.91,1.53-3.91,3.97v3.67c0,2.33,1.29,3.91,3.97,3.91s3.86-1.4,3.86-4Z"/>
            <path class="cls-2" d="M75.96,213.5h1.56v2.9h.06c1.21-2.44,3.23-3.09,5.06-3.09.33,0,.68.03.96.08v1.51c-.47-.08-.93-.08-1.26-.08-2.63,0-4.68,1.64-4.76,4.74v7.58h-1.61v-13.63Z"/>
            <path class="cls-2" d="M86.03,207.59h1.62v13l6.48-7.09h1.97l-4.68,5.01,5.12,8.62h-1.81l-4.43-7.47-2.65,2.79v4.68h-1.62v-19.54Z"/>
            <path class="cls-2" d="M110.9,209.12h-6.59v-1.51h14.89v1.51h-6.57v18.01h-1.73v-18.01Z"/>
            <path class="cls-2" d="M120.55,223.16v-9.66h1.61v8.92c0,2.54,1.26,3.61,3.15,3.61,2.13,0,4.19-1.7,4.19-4.38v-8.16h1.59v13.63h-1.53v-2.6h-.06c-.96,1.97-2.79,2.93-4.71,2.93-2.84,0-4.24-1.92-4.24-4.3ZM122.44,208.62h1.59v2.6h-1.59v-2.6ZM127.64,208.62h1.59v2.6h-1.59v-2.6Z"/>
            <path class="cls-2" d="M135.05,213.5h1.56v2.9h.06c1.21-2.44,3.23-3.09,5.06-3.09.33,0,.68.03.96.08v1.51c-.47-.08-.93-.08-1.26-.08-2.63,0-4.68,1.64-4.76,4.74v7.58h-1.61v-13.63Z"/>
            <path class="cls-2" d="M145.11,207.59h1.62v13l6.48-7.09h1.97l-4.68,5.01,5.12,8.62h-1.81l-4.43-7.47-2.65,2.79v4.68h-1.62v-19.54Z"/>
            <path class="cls-2" d="M158.24,207.61h1.59v2.79h-1.59v-2.79ZM158.24,213.5h1.59v13.63h-1.59v-13.63Z"/>
            <path class="cls-2" d="M162.45,232.54v-1.39c.55.14,1.15.22,1.73.22,1.2,0,2.11-.71,2.54-1.89l1.01-2.65-5.17-13.33h1.75l4.21,11.3h.03l4.05-11.3h1.61l-5.97,16.15c-.85,2.55-2.52,3.09-4.13,3.09-.49,0-1.04-.05-1.67-.19Z"/>
            <path class="cls-2" d="M175.97,221.98v-2.96c0-3.75,2.44-5.83,5.69-5.83,3.04,0,5.25,1.86,5.25,5.36v2h-9.28v1.62c0,2.41,1.53,3.94,4.16,3.94,1.75,0,2.9-.85,3.64-1.75l1.21.77c-1.26,1.81-3.15,2.35-4.96,2.35-3.34,0-5.72-1.75-5.72-5.5ZM185.33,219.41v-.93c0-2.14-1.17-3.94-3.8-3.94-2.49,0-3.89,1.94-3.89,4.13v.74h7.69Z"/>
          </g>
        </g>
      </g>
      <g>
        <path class="cls-2" d="M277,75.35v-25.46h7.25v24.58c0,4.8,2.29,8.34,7.96,8.34,5.29,0,7.96-2.78,7.96-8.34v-24.58h7.25v24.91c0,9.27-6.16,14.55-15.21,14.55s-15.21-4.69-15.21-14.01Z"/>
        <path class="cls-2" d="M314.99,49.9h7.03l16.9,26.49h.11v-26.49h6.98v38.87h-7.09l-16.84-26.55h-.11v26.55h-6.98v-38.87Z"/>
        <path class="cls-2" d="M366.5,76.01v-12.43c0-9.21,7.03-14.34,15.54-14.34,7.41,0,14.83,3.65,14.83,12.32v1.2h-6.87v-.55c0-5.07-4.42-6.54-7.96-6.54s-8.34,1.96-8.34,7.52v12.43c0,4.69,4.03,7.36,8.61,7.36,4.09,0,7.69-1.96,7.69-7.03v-.93h-10.03v-6.54h16.9v8.12c0,8.67-7.14,12.81-14.55,12.81-8.45,0-15.81-4.74-15.81-13.41Z"/>
        <path class="cls-2" d="M403.4,81.3v-31.4h6.65v31.34c0,1.25.6,2.29,2.4,2.29,1.2,0,1.85-.11,3.05-.22v5.07c-1.42.38-3.6.76-5.34.76-6.6,0-6.76-5.34-6.76-7.85Z"/>
        <path class="cls-2" d="M418.88,78.46v-6.38c0-7.58,6.43-11.72,12.59-11.72,6.76,0,12.81,4.47,12.81,11.61v5.72c0,7.58-6.43,11.72-12.59,11.72-6.76,0-12.81-3.82-12.81-10.96ZM437.52,78.3v-6.92c0-3.38-2.62-5.34-6.05-5.34-2.78,0-5.83,1.47-5.83,5.51v6.87c0,3.38,2.62,5.4,6.05,5.4,2.78,0,5.83-1.47,5.83-5.51Z"/>
        <path class="cls-2" d="M456.7,85.98h-.16v2.78h-6.38v-38.87h6.65v14.17h.06c2.07-2.78,5.18-3.76,7.69-3.76,6.1,0,11.01,3.87,11.01,11.01v6.76c0,7.58-5.56,11.34-11.77,11.34-3.11,0-5.67-1.58-7.09-3.43ZM468.81,78.3v-6.92c0-3.38-2.62-5.34-6.05-5.34-2.78,0-5.94,1.91-5.94,5.94v6.43c0,3.38,2.73,5.4,6.16,5.4,2.78,0,5.83-1.47,5.83-5.51Z"/>
        <path class="cls-2" d="M479.65,80.86c0-5.4,4.91-8.61,10.3-8.61h7.41v-2.56c0-2.94-1.96-4.2-5.34-4.2-2.89,0-5.02.98-5.02,2.78v.98h-6v-.76c0-6.11,5.83-8.18,11.07-8.18,6.21,0,11.94,2.07,11.94,8.88v13.57c0,1.25.16,5.4.49,6h-6.59c-.11-.44-.22-2.13-.27-2.56h-.11c-2.45,2.56-4.58,3.11-8.18,3.11-5.78,0-9.7-3.16-9.7-8.45ZM497.37,78.46v-1.36h-6.54c-2.84,0-4.69.98-4.69,3.43s1.91,3.54,5.02,3.54c5.34,0,6.21-2.62,6.21-5.61Z"/>
        <path class="cls-2" d="M510.94,81.3v-31.4h6.65v31.34c0,1.25.6,2.29,2.4,2.29,1.2,0,1.85-.11,3.05-.22v5.07c-1.42.38-3.6.76-5.34.76-6.6,0-6.76-5.34-6.76-7.85Z"/>
        <path class="cls-2" d="M540.7,76.01v-12.43c0-9.21,7.03-14.34,15.54-14.34,7.41,0,14.83,4.14,14.83,12.81v1.2h-6.87v-.54c0-5.07-4.42-7.03-7.96-7.03s-8.34,1.96-8.34,7.52v12.43c0,4.69,4.03,7.36,8.61,7.36,3.54,0,7.69-1.96,7.69-7.03v-.55h6.87v1.2c0,8.67-7.14,12.81-14.55,12.81-8.45,0-15.81-4.74-15.81-13.41Z"/>
        <path class="cls-2" d="M576.02,78.46v-6.38c0-7.58,6.43-11.72,12.59-11.72,6.76,0,12.81,4.47,12.81,11.61v5.72c0,7.58-6.43,11.72-12.59,11.72-6.76,0-12.81-3.82-12.81-10.96ZM594.66,78.3v-6.92c0-3.38-2.62-5.34-6.05-5.34-2.78,0-5.83,1.47-5.83,5.51v6.87c0,3.38,2.62,5.4,6.05,5.4,2.78,0,5.83-1.47,5.83-5.51Z"/>
        <path class="cls-2" d="M607.25,60.86h6.43v3.38h.11c1.91-2.56,4.63-3.92,7.9-3.92,3.71,0,6.21,1.47,7.96,4.14h.06c1.96-2.51,4.8-4.14,8.61-4.14,5.18,0,9.76,3,9.76,9.81v18.64h-6.65v-16.24c0-3.76-1.31-6.38-5.07-6.38s-5.34,2.89-5.34,6.54v16.08h-6.65v-16.14c0-3.54-1.04-6.49-5.07-6.49-2.34,0-5.4,1.58-5.4,6.21v16.41h-6.65v-27.91Z"/>
        <path class="cls-2" d="M655.22,60.86h6.49v3.22h.05c2.18-2.62,5.34-3.76,7.85-3.76,6.1,0,11.01,3.87,11.01,11.01v6.76c0,7.58-5.29,11.34-11.5,11.34-3.11,0-5.67-1.58-7.09-3.43h-.16v13.3h-6.65v-38.43ZM673.86,78.3v-6.92c0-3.38-2.62-5.34-6.05-5.34-2.78,0-5.94,1.85-5.94,5.89v6.49c0,3.38,2.73,5.4,6.16,5.4,2.78,0,5.83-1.47,5.83-5.51Z"/>
        <path class="cls-2" d="M684.7,80.86c0-5.4,4.91-8.61,10.3-8.61h7.41v-2.56c0-2.94-1.96-4.2-5.34-4.2-2.89,0-5.02.98-5.02,2.78v.98h-6v-.76c0-6.11,5.83-8.18,11.07-8.18,6.21,0,11.94,2.07,11.94,8.88v13.57c0,1.25.16,5.4.49,6h-6.59c-.11-.44-.22-2.13-.27-2.56h-.11c-2.45,2.56-4.58,3.11-8.18,3.11-5.78,0-9.7-3.16-9.7-8.45ZM702.42,78.46v-1.36h-6.54c-2.84,0-4.69.98-4.69,3.43s1.91,3.54,5.02,3.54c5.34,0,6.21-2.62,6.21-5.61Z"/>
        <path class="cls-2" d="M714.68,78.03v-5.45c0-7.85,5.89-12.21,12.81-12.21,6.05,0,12.21,3.54,12.21,10.96v.54h-6.49v-.54c0-3.82-3-5.34-5.72-5.34s-5.89,1.53-5.89,5.72v6.54c0,3.54,2.56,5.61,6.1,5.61,2.73,0,5.51-1.53,5.51-5.34v-.27h6.49v.27c0,7.41-5.94,10.9-11.99,10.9-6.87,0-13.03-3.98-13.03-11.39Z"/>
        <path class="cls-2" d="M745.59,82.17v-16.03h-3.76v-5.29h3.76v-8.45h6.65v8.45h6.05v5.29h-6.05v14.44c0,2.07,1.09,2.67,2.62,2.67,1.36,0,2.13-.05,3.43-.27v5.67c-1.47.38-3.92.55-4.91.55-4.31,0-7.79-2.07-7.79-7.03Z"/>
        <path class="cls-2" d="M785.43,56.11h-11.17v-6.21h29.54v6.21h-11.17v32.65h-7.2v-32.65Z"/>
        <path class="cls-2" d="M807.45,78.68v-17.82h6.65v16.19c0,4.2,1.85,6.43,5.23,6.43,3.65,0,5.72-2.29,5.72-7.03v-15.59h6.65v27.91h-6.43v-3.43h-.16c-1.85,2.67-4.74,3.98-7.85,3.98-6.27,0-9.81-4.03-9.81-10.63ZM810.89,49.46h6.48v7.14h-6.48v-7.14ZM821.79,49.46h6.49v7.14h-6.49v-7.14Z"/>
        <path class="cls-2" d="M838.25,60.86h6.49v4.63h.11c1.64-2.94,5.78-5.18,9.1-5.18.71,0,1.53,0,2.23.16v6.11c-.87-.16-1.58-.16-2.51-.16-5.02,0-8.78,2.89-8.78,8.07v14.28h-6.65v-27.91Z"/>
        <path class="cls-2" d="M860.81,49.9h6.65l.05,22.46,10.19-11.5h7.9l-9.98,10.52,10.41,17.39h-7.47l-7.47-12.76-3.65,3.92v8.83h-6.65v-38.87Z"/>
        <path class="cls-2" d="M890.52,49.52h6.65v7.09h-6.65v-7.09ZM890.52,60.86h6.65v27.91h-6.65v-27.91Z"/>
        <path class="cls-2" d="M903.82,99.12v-5.61c1.2.16,2.29.27,3.16.27,1.69,0,2.73-1.04,3.22-2.34l1.2-3.33-10.3-27.26h7.25l6.54,19.08h.11l6.27-19.08h6.81l-11.83,32.54c-1.58,4.42-4.8,6.05-9.1,6.05-.65,0-2.18-.11-3.32-.33Z"/>
        <path class="cls-2" d="M930.14,78.03v-5.45c0-7.85,5.89-12.21,12.81-12.21,6.05,0,12.05,3.54,12.05,10.96v5.4h-17.93v1.53c0,3.54,2.89,5.61,6.43,5.61,2.23,0,4.58-1.47,6.05-3.6l5.12,2.94c-2.18,4.36-6.6,6.21-11.5,6.21-6.87,0-13.03-3.76-13.03-11.39ZM948.35,72.08v-.76c0-3.82-2.67-5.34-5.4-5.34s-5.89,1.53-5.89,5.72v.38h11.28Z"/>
      </g>
      <g>
        <path class="cls-2" d="M280.11,172.14l18.67-21.69c4.53-5.15,8-9.15,8-14.22v-1.33c0-3.47-1.87-6.4-7.02-6.4-4.89,0-7.02,3.2-7.02,7.55v1.87h-14.31v-3.11c0-12,9.51-18.31,22.49-18.31,13.95,0,21.15,8,21.15,18.75s-9.33,19.29-16.18,26.66l-6.04,6.58v.18h22.75v12.44h-42.48v-8.98Z"/>
        <path class="cls-2" d="M331.57,162.54v-25.86c0-14.13,12.09-20,23.91-20s23.82,5.78,23.82,20.26v25.42c0,13.87-12.44,19.82-23.73,19.82s-24-5.16-24-19.64ZM363.48,162.09v-25.95c0-4-2.84-7.2-7.91-7.2s-8.09,3.29-8.09,7.47v25.86c0,4,2.67,7.55,8.09,7.55s7.91-3.82,7.91-7.73Z"/>
        <path class="cls-2" d="M390.05,172.14l18.66-21.69c4.53-5.15,8-9.15,8-14.22v-1.33c0-3.47-1.87-6.4-7.02-6.4-4.89,0-7.02,3.2-7.02,7.55v1.87h-14.31v-3.11c0-12,9.51-18.31,22.49-18.31,13.95,0,21.15,8,21.15,18.75s-9.33,19.29-16.18,26.66l-6.04,6.58v.18h22.75v12.44h-42.48v-8.98Z"/>
        <path class="cls-2" d="M442.05,166.45v-3.91h14.49v1.51c0,3.64,3.02,6.04,7.82,6.04s7.55-2.58,7.55-8.35v-4.44c0-4.44-3.55-6.75-7.73-6.75-3.29,0-5.69,1.6-7.29,3.38l-13.33-1.78,1.69-34.4h38.22v12.8h-26.13l-.53,12.8c4-2.76,8.53-3.73,13.33-3.73,7.56,0,17.06,4.27,17.06,15.55v7.47c0,12.98-11.02,19.55-23.2,19.55-12.98,0-21.95-6.13-21.95-15.73Z"/>
        <path class="cls-2" d="M516,170.62l29.42-40.17h-28.18v-12.71h47.82v11.11l-28.53,39.29h28.71v12.98h-49.24v-10.49Z"/>
        <path class="cls-2" d="M574.75,115.7h14.67v13.07h-14.67v-13.07ZM574.75,134.36h14.67v46.75h-14.67v-46.75Z"/>
        <path class="cls-2" d="M600.26,134.36h14.4v7.73h.09c2.49-4.53,8.44-8.53,14.22-8.53,1.33,0,3.2.09,4.62.44v12.62c-2.22-.36-4.89-.53-6.22-.53-6.13,0-12.44,2.58-12.44,10.67v24.35h-14.67v-46.75Z"/>
        <path class="cls-2" d="M638.21,134.36h15.73l8.98,29.6h.27l9.06-29.6h13.6l-16.09,46.93h-14.93l-16.62-46.93Z"/>
        <path class="cls-2" d="M689.77,162.98v-8.62c0-14.22,11.2-20.98,22.75-20.98,10.67,0,20.71,6.31,20.71,19.02v8.98h-28.53v1.96c0,5.24,5.07,7.64,9.87,7.64,4.09,0,9.87-2.22,12.18-4.27l5.6,8.27c-4.8,4.89-12,7.29-19.64,7.29-11.73,0-22.93-5.69-22.93-19.29ZM719.36,152.85v-1.51c0-4.89-3.29-7.11-7.2-7.11s-7.47,2.31-7.47,7.38v1.24h14.67Z"/>
        <path class="cls-2" d="M739.9,174.98l7.64-8.8c3.29,3.2,8.35,5.6,13.42,5.6,3.38,0,7.2-.89,7.2-3.91,0-2.76-2.13-3.47-5.87-4.18-.27-.09-3.55-.53-8.27-1.87-7.47-1.78-12.09-5.51-12.09-12.53,0-9.24,8.09-16,19.64-16,8.98,0,14.13,1.78,19.38,6.22l-8.36,8.09c-3.02-2.76-7.11-4.09-10.75-4.09-3.91,0-6.22,1.16-6.22,3.73s3.38,2.93,6.58,3.56l8.09,1.69c8.35,1.78,12.89,6.67,12.89,13.33,0,11.38-11.64,16.35-21.51,16.35-8.44,0-15.55-1.42-21.77-7.2Z"/>
        <path class="cls-2" d="M791.98,115.7h14.67v13.07h-14.67v-13.07ZM791.98,134.36h14.67v46.75h-14.67v-46.75Z"/>
      </g>
      <rect class="cls-2" x="228.57" y="29.11" width="2.95" height="174.52"/>
      <polygon class="cls-3" points="832.85 114.45 832.85 181.83 891.03 148.14 832.85 114.45"/>
      <polygon class="cls-4" points="864.53 114.45 864.53 129.91 896.52 148.03 864.53 166.46 864.53 181.83 922.13 148.14 864.53 114.45"/>
      <polygon class="cls-1" points="895.25 114.45 895.25 129.91 927.24 148.03 895.25 166.46 895.25 181.83 952.86 148.14 895.25 114.45"/>
    </g>
  </g>
</svg>