<?xml version="1.0" encoding="UTF-8"?>
<svg id="Layer_2" data-name="Layer 2" xmlns="http://www.w3.org/2000/svg" xmlns:xlink="http://www.w3.org/1999/xlink" viewBox="0 0 1123.36 1080">
  <defs>
    <style>
      .cls-1 {
        fill: none;
      }

      .cls-2 {
        fill: #fff;
      }

      .cls-3 {
        fill: #1e3250;
      }

      .cls-4 {
        opacity: .1;
      }

      .cls-5 {
        fill: #4b6c8a;
      }

      .cls-6 {
        fill: #699cc6;
      }

      .cls-7 {
        clip-path: url(#clippath);
      }
    </style>
    <clipPath id="clippath">
      <rect class="cls-1" width="1123.36" height="1080"/>
    </clipPath>
  </defs>
  <g id="Layer_1-2" data-name="Layer 1">
    <g class="cls-7">
      <g>
        <g class="cls-4">
          <g>
            <g>
              <polygon class="cls-5" points="37.45 22.62 -1.72 0 -1.72 45.23 37.45 22.62"/>
              <polygon class="cls-6" points="76.93 22.62 37.76 0 37.76 45.23 76.93 22.62"/>
              <polygon class="cls-2" points="116.41 22.62 77.24 0 77.24 45.23 116.41 22.62"/>
            </g>
            <g>
              <polygon class="cls-5" points="194.91 22.62 155.74 0 155.74 45.23 194.91 22.62"/>
              <polygon class="cls-6" points="234.39 22.62 195.22 0 195.22 45.23 234.39 22.62"/>
              <polygon class="cls-2" points="273.87 22.62 234.7 0 234.7 45.23 273.87 22.62"/>
              <polygon class="cls-3" points="156.06 22.62 116.89 0 116.89 45.23 156.06 22.62"/>
            </g>
            <g>
              <polygon class="cls-5" points="352.38 22.62 313.21 0 313.21 45.23 352.38 22.62"/>
              <polygon class="cls-6" points="391.86 22.62 352.68 0 352.68 45.23 391.86 22.62"/>
              <polygon class="cls-2" points="431.34 22.62 392.16 0 392.16 45.23 431.34 22.62"/>
              <polygon class="cls-3" points="313.52 22.62 274.35 0 274.35 45.23 313.52 22.62"/>
            </g>
            <g>
              <polygon class="cls-5" points="509.84 22.62 470.67 0 470.67 45.23 509.84 22.62"/>
              <polygon class="cls-6" points="549.32 22.62 510.15 0 510.15 45.23 549.32 22.62"/>
              <polygon class="cls-2" points="588.8 22.62 549.63 0 549.63 45.23 588.8 22.62"/>
              <polygon class="cls-3" points="470.99 22.62 431.81 0 431.81 45.23 470.99 22.62"/>
            </g>
            <g>
              <polygon class="cls-5" points="667.31 22.62 628.13 0 628.13 45.23 667.31 22.62"/>
              <polygon class="cls-6" points="706.79 22.62 667.61 0 667.61 45.23 706.79 22.62"/>
              <polygon class="cls-2" points="746.27 22.62 707.09 0 707.09 45.23 746.27 22.62"/>
              <polygon class="cls-3" points="628.45 22.62 589.28 0 589.28 45.23 628.45 22.62"/>
            </g>
            <g>
              <polygon class="cls-5" points="824.77 22.62 785.6 0 785.6 45.23 824.77 22.62"/>
              <polygon class="cls-6" points="864.25 22.62 825.08 0 825.08 45.23 864.25 22.62"/>
              <polygon class="cls-2" points="903.73 22.62 864.56 0 864.56 45.23 903.73 22.62"/>
              <polygon class="cls-3" points="785.92 22.62 746.74 0 746.74 45.23 785.92 22.62"/>
            </g>
            <g>
              <polygon class="cls-5" points="982.24 22.62 943.06 0 943.06 45.23 982.24 22.62"/>
              <polygon class="cls-6" points="1021.72 22.62 982.54 0 982.54 45.23 1021.72 22.62"/>
              <polygon class="cls-2" points="1061.2 22.62 1022.02 0 1022.02 45.23 1061.2 22.62"/>
              <polygon class="cls-3" points="943.38 22.62 904.21 0 904.21 45.23 943.38 22.62"/>
            </g>
          </g>
          <g>
            <g>
              <polygon class="cls-6" points="38.07 67.61 -1.1 44.99 -1.1 90.22 38.07 67.61"/>
              <polygon class="cls-2" points="77.55 67.61 38.38 44.99 38.38 90.22 77.55 67.61"/>
            </g>
            <g>
              <polygon class="cls-5" points="156.06 67.61 116.89 44.99 116.89 90.22 156.06 67.61"/>
              <polygon class="cls-6" points="195.54 67.61 156.37 44.99 156.37 90.22 195.54 67.61"/>
              <polygon class="cls-2" points="235.02 67.61 195.84 44.99 195.84 90.22 235.02 67.61"/>
              <polygon class="cls-3" points="117.2 67.61 78.03 44.99 78.03 90.22 117.2 67.61"/>
            </g>
            <g>
              <polygon class="cls-5" points="313.52 67.61 274.35 44.99 274.35 90.22 313.52 67.61"/>
              <polygon class="cls-6" points="353 67.61 313.83 44.99 313.83 90.22 353 67.61"/>
              <polygon class="cls-2" points="392.48 67.61 353.31 44.99 353.31 90.22 392.48 67.61"/>
              <polygon class="cls-3" points="274.67 67.61 235.5 44.99 235.5 90.22 274.67 67.61"/>
            </g>
            <g>
              <polygon class="cls-5" points="470.99 67.61 431.81 44.99 431.81 90.22 470.99 67.61"/>
              <polygon class="cls-6" points="510.47 67.61 471.29 44.99 471.29 90.22 510.47 67.61"/>
              <polygon class="cls-2" points="549.95 67.61 510.77 44.99 510.77 90.22 549.95 67.61"/>
              <polygon class="cls-3" points="432.13 67.61 392.96 44.99 392.96 90.22 432.13 67.61"/>
            </g>
            <g>
              <polygon class="cls-5" points="628.45 67.61 589.28 44.99 589.28 90.22 628.45 67.61"/>
              <polygon class="cls-6" points="667.93 67.61 628.76 44.99 628.76 90.22 667.93 67.61"/>
              <polygon class="cls-2" points="707.41 67.61 668.24 44.99 668.24 90.22 707.41 67.61"/>
              <polygon class="cls-3" points="589.6 67.61 550.42 44.99 550.42 90.22 589.6 67.61"/>
            </g>
            <g>
              <polygon class="cls-5" points="785.92 67.61 746.74 44.99 746.74 90.22 785.92 67.61"/>
              <polygon class="cls-6" points="825.4 67.61 786.22 44.99 786.22 90.22 825.4 67.61"/>
              <polygon class="cls-2" points="864.88 67.61 825.7 44.99 825.7 90.22 864.88 67.61"/>
              <polygon class="cls-3" points="747.06 67.61 707.89 44.99 707.89 90.22 747.06 67.61"/>
            </g>
            <g>
              <polygon class="cls-5" points="943.38 67.61 904.21 44.99 904.21 90.22 943.38 67.61"/>
              <polygon class="cls-6" points="982.86 67.61 943.69 44.99 943.69 90.22 982.86 67.61"/>
              <polygon class="cls-2" points="1022.34 67.61 983.17 44.99 983.17 90.22 1022.34 67.61"/>
              <polygon class="cls-3" points="904.53 67.61 865.35 44.99 865.35 90.22 904.53 67.61"/>
            </g>
          </g>
          <g>
            <polygon class="cls-2" points="38.7 112.6 -.47 89.98 -.47 135.21 38.7 112.6"/>
            <g>
              <polygon class="cls-5" points="117.2 112.6 78.03 89.98 78.03 135.21 117.2 112.6"/>
              <polygon class="cls-6" points="156.68 112.6 117.51 89.98 117.51 135.21 156.68 112.6"/>
              <polygon class="cls-2" points="196.16 112.6 156.99 89.98 156.99 135.21 196.16 112.6"/>
              <polygon class="cls-3" points="78.35 112.6 39.18 89.98 39.18 135.21 78.35 112.6"/>
            </g>
            <g>
              <polygon class="cls-5" points="274.67 112.6 235.5 89.98 235.5 135.21 274.67 112.6"/>
              <polygon class="cls-6" points="314.15 112.6 274.97 89.98 274.97 135.21 314.15 112.6"/>
              <polygon class="cls-2" points="353.63 112.6 314.45 89.98 314.45 135.21 353.63 112.6"/>
              <polygon class="cls-3" points="235.81 112.6 196.64 89.98 196.64 135.21 235.81 112.6"/>
            </g>
            <g>
              <polygon class="cls-5" points="432.13 112.6 392.96 89.98 392.96 135.21 432.13 112.6"/>
              <polygon class="cls-6" points="471.61 112.6 432.44 89.98 432.44 135.21 471.61 112.6"/>
              <polygon class="cls-2" points="511.09 112.6 471.92 89.98 471.92 135.21 511.09 112.6"/>
              <polygon class="cls-3" points="393.28 112.6 354.11 89.98 354.11 135.21 393.28 112.6"/>
            </g>
            <g>
              <polygon class="cls-5" points="589.6 112.6 550.42 89.98 550.42 135.21 589.6 112.6"/>
              <polygon class="cls-6" points="629.08 112.6 589.9 89.98 589.9 135.21 629.08 112.6"/>
              <polygon class="cls-2" points="668.56 112.6 629.38 89.98 629.38 135.21 668.56 112.6"/>
              <polygon class="cls-3" points="550.74 112.6 511.57 89.98 511.57 135.21 550.74 112.6"/>
            </g>
            <g>
              <polygon class="cls-5" points="747.06 112.6 707.89 89.98 707.89 135.21 747.06 112.6"/>
              <polygon class="cls-6" points="786.54 112.6 747.37 89.98 747.37 135.21 786.54 112.6"/>
              <polygon class="cls-2" points="826.02 112.6 786.85 89.98 786.85 135.21 826.02 112.6"/>
              <polygon class="cls-3" points="708.21 112.6 669.03 89.98 669.03 135.21 708.21 112.6"/>
            </g>
            <g>
              <polygon class="cls-5" points="904.53 112.6 865.35 89.98 865.35 135.21 904.53 112.6"/>
              <polygon class="cls-6" points="944.01 112.6 904.83 89.98 904.83 135.21 944.01 112.6"/>
              <polygon class="cls-2" points="983.49 112.6 944.31 89.98 944.31 135.21 983.49 112.6"/>
              <polygon class="cls-3" points="865.67 112.6 826.5 89.98 826.5 135.21 865.67 112.6"/>
            </g>
          </g>
          <g>
            <g>
              <polygon class="cls-5" points="77.67 157.59 38.5 134.97 38.5 180.2 77.67 157.59"/>
              <polygon class="cls-6" points="117.15 157.59 77.98 134.97 77.98 180.2 117.15 157.59"/>
              <polygon class="cls-2" points="156.63 157.59 117.46 134.97 117.46 180.2 156.63 157.59"/>
              <polygon class="cls-3" points="38.82 157.59 -.35 134.97 -.35 180.2 38.82 157.59"/>
            </g>
            <g>
              <polygon class="cls-5" points="235.14 157.59 195.97 134.97 195.97 180.2 235.14 157.59"/>
              <polygon class="cls-6" points="274.62 157.59 235.45 134.97 235.45 180.2 274.62 157.59"/>
              <polygon class="cls-2" points="314.1 157.59 274.92 134.97 274.92 180.2 314.1 157.59"/>
              <polygon class="cls-3" points="196.28 157.59 157.11 134.97 157.11 180.2 196.28 157.59"/>
            </g>
            <g>
              <polygon class="cls-5" points="392.6 157.59 353.43 134.97 353.43 180.2 392.6 157.59"/>
              <polygon class="cls-6" points="432.08 157.59 392.91 134.97 392.91 180.2 432.08 157.59"/>
              <polygon class="cls-2" points="471.56 157.59 432.39 134.97 432.39 180.2 471.56 157.59"/>
              <polygon class="cls-3" points="353.75 157.59 314.58 134.97 314.58 180.2 353.75 157.59"/>
            </g>
            <g>
              <polygon class="cls-5" points="550.07 157.59 510.89 134.97 510.89 180.2 550.07 157.59"/>
              <polygon class="cls-6" points="589.55 157.59 550.37 134.97 550.37 180.2 589.55 157.59"/>
              <polygon class="cls-2" points="629.03 157.59 589.85 134.97 589.85 180.2 629.03 157.59"/>
              <polygon class="cls-3" points="511.21 157.59 472.04 134.97 472.04 180.2 511.21 157.59"/>
            </g>
            <g>
              <polygon class="cls-5" points="707.53 157.59 668.36 134.97 668.36 180.2 707.53 157.59"/>
              <polygon class="cls-6" points="747.01 157.59 707.84 134.97 707.84 180.2 747.01 157.59"/>
              <polygon class="cls-2" points="786.49 157.59 747.32 134.97 747.32 180.2 786.49 157.59"/>
              <polygon class="cls-3" points="668.68 157.59 629.5 134.97 629.5 180.2 668.68 157.59"/>
            </g>
            <g>
              <polygon class="cls-5" points="865 157.59 825.82 134.97 825.82 180.2 865 157.59"/>
              <polygon class="cls-6" points="904.48 157.59 865.3 134.97 865.3 180.2 904.48 157.59"/>
              <polygon class="cls-2" points="943.96 157.59 904.78 134.97 904.78 180.2 943.96 157.59"/>
              <polygon class="cls-3" points="826.14 157.59 786.97 134.97 786.97 180.2 826.14 157.59"/>
            </g>
          </g>
          <g>
            <g>
              <polygon class="cls-5" points="37.45 202.58 -1.72 179.96 -1.72 225.19 37.45 202.58"/>
              <polygon class="cls-6" points="76.93 202.58 37.76 179.96 37.76 225.19 76.93 202.58"/>
              <polygon class="cls-2" points="116.41 202.58 77.24 179.96 77.24 225.19 116.41 202.58"/>
            </g>
            <g>
              <polygon class="cls-5" points="194.91 202.58 155.74 179.96 155.74 225.19 194.91 202.58"/>
              <polygon class="cls-6" points="234.39 202.58 195.22 179.96 195.22 225.19 234.39 202.58"/>
              <polygon class="cls-2" points="273.87 202.58 234.7 179.96 234.7 225.19 273.87 202.58"/>
              <polygon class="cls-3" points="156.06 202.58 116.89 179.96 116.89 225.19 156.06 202.58"/>
            </g>
            <g>
              <polygon class="cls-5" points="352.38 202.58 313.21 179.96 313.21 225.19 352.38 202.58"/>
              <polygon class="cls-6" points="391.86 202.58 352.68 179.96 352.68 225.19 391.86 202.58"/>
              <polygon class="cls-2" points="431.34 202.58 392.16 179.96 392.16 225.19 431.34 202.58"/>
              <polygon class="cls-3" points="313.52 202.58 274.35 179.96 274.35 225.19 313.52 202.58"/>
            </g>
            <g>
              <polygon class="cls-5" points="509.84 202.58 470.67 179.96 470.67 225.19 509.84 202.58"/>
              <polygon class="cls-6" points="549.32 202.58 510.15 179.96 510.15 225.19 549.32 202.58"/>
              <polygon class="cls-2" points="588.8 202.58 549.63 179.96 549.63 225.19 588.8 202.58"/>
              <polygon class="cls-3" points="470.99 202.58 431.81 179.96 431.81 225.19 470.99 202.58"/>
            </g>
            <g>
              <polygon class="cls-5" points="667.31 202.58 628.13 179.96 628.13 225.19 667.31 202.58"/>
              <polygon class="cls-6" points="706.79 202.58 667.61 179.96 667.61 225.19 706.79 202.58"/>
              <polygon class="cls-2" points="746.27 202.58 707.09 179.96 707.09 225.19 746.27 202.58"/>
              <polygon class="cls-3" points="628.45 202.58 589.28 179.96 589.28 225.19 628.45 202.58"/>
            </g>
            <g>
              <polygon class="cls-5" points="824.77 202.58 785.6 179.96 785.6 225.19 824.77 202.58"/>
              <polygon class="cls-6" points="864.25 202.58 825.08 179.96 825.08 225.19 864.25 202.58"/>
              <polygon class="cls-2" points="903.73 202.58 864.56 179.96 864.56 225.19 903.73 202.58"/>
              <polygon class="cls-3" points="785.92 202.58 746.74 179.96 746.74 225.19 785.92 202.58"/>
            </g>
            <g>
              <polygon class="cls-5" points="982.24 202.58 943.06 179.96 943.06 225.19 982.24 202.58"/>
              <polygon class="cls-6" points="1021.72 202.58 982.54 179.96 982.54 225.19 1021.72 202.58"/>
              <polygon class="cls-2" points="1061.2 202.58 1022.02 179.96 1022.02 225.19 1061.2 202.58"/>
              <polygon class="cls-3" points="943.38 202.58 904.21 179.96 904.21 225.19 943.38 202.58"/>
            </g>
          </g>
          <g>
            <g>
              <polygon class="cls-6" points="38.07 247.57 -1.1 224.95 -1.1 270.18 38.07 247.57"/>
              <polygon class="cls-2" points="77.55 247.57 38.38 224.95 38.38 270.18 77.55 247.57"/>
            </g>
            <g>
              <polygon class="cls-5" points="156.06 247.57 116.89 224.95 116.89 270.18 156.06 247.57"/>
              <polygon class="cls-6" points="195.54 247.57 156.37 224.95 156.37 270.18 195.54 247.57"/>
              <polygon class="cls-2" points="235.02 247.57 195.84 224.95 195.84 270.18 235.02 247.57"/>
              <polygon class="cls-3" points="117.2 247.57 78.03 224.95 78.03 270.18 117.2 247.57"/>
            </g>
            <g>
              <polygon class="cls-5" points="313.52 247.57 274.35 224.95 274.35 270.18 313.52 247.57"/>
              <polygon class="cls-6" points="353 247.57 313.83 224.95 313.83 270.18 353 247.57"/>
              <polygon class="cls-2" points="392.48 247.57 353.31 224.95 353.31 270.18 392.48 247.57"/>
              <polygon class="cls-3" points="274.67 247.57 235.5 224.95 235.5 270.18 274.67 247.57"/>
            </g>
            <g>
              <polygon class="cls-5" points="470.99 247.57 431.81 224.95 431.81 270.18 470.99 247.57"/>
              <polygon class="cls-6" points="510.47 247.57 471.29 224.95 471.29 270.18 510.47 247.57"/>
              <polygon class="cls-2" points="549.95 247.57 510.77 224.95 510.77 270.18 549.95 247.57"/>
              <polygon class="cls-3" points="432.13 247.57 392.96 224.95 392.96 270.18 432.13 247.57"/>
            </g>
            <g>
              <polygon class="cls-5" points="628.45 247.57 589.28 224.95 589.28 270.18 628.45 247.57"/>
              <polygon class="cls-6" points="667.93 247.57 628.76 224.95 628.76 270.18 667.93 247.57"/>
              <polygon class="cls-2" points="707.41 247.57 668.24 224.95 668.24 270.18 707.41 247.57"/>
              <polygon class="cls-3" points="589.6 247.57 550.42 224.95 550.42 270.18 589.6 247.57"/>
            </g>
            <g>
              <polygon class="cls-5" points="785.92 247.57 746.74 224.95 746.74 270.18 785.92 247.57"/>
              <polygon class="cls-6" points="825.4 247.57 786.22 224.95 786.22 270.18 825.4 247.57"/>
              <polygon class="cls-2" points="864.88 247.57 825.7 224.95 825.7 270.18 864.88 247.57"/>
              <polygon class="cls-3" points="747.06 247.57 707.89 224.95 707.89 270.18 747.06 247.57"/>
            </g>
            <g>
              <polygon class="cls-5" points="943.38 247.57 904.21 224.95 904.21 270.18 943.38 247.57"/>
              <polygon class="cls-6" points="982.86 247.57 943.69 224.95 943.69 270.18 982.86 247.57"/>
              <polygon class="cls-2" points="1022.34 247.57 983.17 224.95 983.17 270.18 1022.34 247.57"/>
              <polygon class="cls-3" points="904.53 247.57 865.35 224.95 865.35 270.18 904.53 247.57"/>
            </g>
          </g>
          <g>
            <polygon class="cls-2" points="38.7 292.56 -.47 269.94 -.47 315.17 38.7 292.56"/>
            <g>
              <polygon class="cls-5" points="117.2 292.56 78.03 269.94 78.03 315.17 117.2 292.56"/>
              <polygon class="cls-6" points="156.68 292.56 117.51 269.94 117.51 315.17 156.68 292.56"/>
              <polygon class="cls-2" points="196.16 292.56 156.99 269.94 156.99 315.17 196.16 292.56"/>
              <polygon class="cls-3" points="78.35 292.56 39.18 269.94 39.18 315.17 78.35 292.56"/>
            </g>
            <g>
              <polygon class="cls-5" points="274.67 292.56 235.5 269.94 235.5 315.17 274.67 292.56"/>
              <polygon class="cls-6" points="314.15 292.56 274.97 269.94 274.97 315.17 314.15 292.56"/>
              <polygon class="cls-2" points="353.63 292.56 314.45 269.94 314.45 315.17 353.63 292.56"/>
              <polygon class="cls-3" points="235.81 292.56 196.64 269.94 196.64 315.17 235.81 292.56"/>
            </g>
            <g>
              <polygon class="cls-5" points="432.13 292.56 392.96 269.94 392.96 315.17 432.13 292.56"/>
              <polygon class="cls-6" points="471.61 292.56 432.44 269.94 432.44 315.17 471.61 292.56"/>
              <polygon class="cls-2" points="511.09 292.56 471.92 269.94 471.92 315.17 511.09 292.56"/>
              <polygon class="cls-3" points="393.28 292.56 354.11 269.94 354.11 315.17 393.28 292.56"/>
            </g>
            <g>
              <polygon class="cls-5" points="589.6 292.56 550.42 269.94 550.42 315.17 589.6 292.56"/>
              <polygon class="cls-6" points="629.08 292.56 589.9 269.94 589.9 315.17 629.08 292.56"/>
              <polygon class="cls-2" points="668.56 292.56 629.38 269.94 629.38 315.17 668.56 292.56"/>
              <polygon class="cls-3" points="550.74 292.56 511.57 269.94 511.57 315.17 550.74 292.56"/>
            </g>
            <g>
              <polygon class="cls-5" points="747.06 292.56 707.89 269.94 707.89 315.17 747.06 292.56"/>
              <polygon class="cls-6" points="786.54 292.56 747.37 269.94 747.37 315.17 786.54 292.56"/>
              <polygon class="cls-2" points="826.02 292.56 786.85 269.94 786.85 315.17 826.02 292.56"/>
              <polygon class="cls-3" points="708.21 292.56 669.03 269.94 669.03 315.17 708.21 292.56"/>
            </g>
            <g>
              <polygon class="cls-5" points="904.53 292.56 865.35 269.94 865.35 315.17 904.53 292.56"/>
              <polygon class="cls-6" points="944.01 292.56 904.83 269.94 904.83 315.17 944.01 292.56"/>
              <polygon class="cls-2" points="983.49 292.56 944.31 269.94 944.31 315.17 983.49 292.56"/>
              <polygon class="cls-3" points="865.67 292.56 826.5 269.94 826.5 315.17 865.67 292.56"/>
            </g>
          </g>
          <g>
            <g>
              <polygon class="cls-5" points="77.67 337.55 38.5 314.93 38.5 360.16 77.67 337.55"/>
              <polygon class="cls-6" points="117.15 337.55 77.98 314.93 77.98 360.16 117.15 337.55"/>
              <polygon class="cls-2" points="156.63 337.55 117.46 314.93 117.46 360.16 156.63 337.55"/>
              <polygon class="cls-3" points="38.82 337.55 -.35 314.93 -.35 360.16 38.82 337.55"/>
            </g>
            <g>
              <polygon class="cls-5" points="235.14 337.55 195.97 314.93 195.97 360.16 235.14 337.55"/>
              <polygon class="cls-6" points="274.62 337.55 235.45 314.93 235.45 360.16 274.62 337.55"/>
              <polygon class="cls-2" points="314.1 337.55 274.92 314.93 274.92 360.16 314.1 337.55"/>
              <polygon class="cls-3" points="196.28 337.55 157.11 314.93 157.11 360.16 196.28 337.55"/>
            </g>
            <g>
              <polygon class="cls-5" points="392.6 337.55 353.43 314.93 353.43 360.16 392.6 337.55"/>
              <polygon class="cls-6" points="432.08 337.55 392.91 314.93 392.91 360.16 432.08 337.55"/>
              <polygon class="cls-2" points="471.56 337.55 432.39 314.93 432.39 360.16 471.56 337.55"/>
              <polygon class="cls-3" points="353.75 337.55 314.58 314.93 314.58 360.16 353.75 337.55"/>
            </g>
            <g>
              <polygon class="cls-5" points="550.07 337.55 510.89 314.93 510.89 360.16 550.07 337.55"/>
              <polygon class="cls-6" points="589.55 337.55 550.37 314.93 550.37 360.16 589.55 337.55"/>
              <polygon class="cls-2" points="629.03 337.55 589.85 314.93 589.85 360.16 629.03 337.55"/>
              <polygon class="cls-3" points="511.21 337.55 472.04 314.93 472.04 360.16 511.21 337.55"/>
            </g>
            <g>
              <polygon class="cls-5" points="707.53 337.55 668.36 314.93 668.36 360.16 707.53 337.55"/>
              <polygon class="cls-6" points="747.01 337.55 707.84 314.93 707.84 360.16 747.01 337.55"/>
              <polygon class="cls-2" points="786.49 337.55 747.32 314.93 747.32 360.16 786.49 337.55"/>
              <polygon class="cls-3" points="668.68 337.55 629.5 314.93 629.5 360.16 668.68 337.55"/>
            </g>
            <g>
              <polygon class="cls-5" points="865 337.55 825.82 314.93 825.82 360.16 865 337.55"/>
              <polygon class="cls-6" points="904.48 337.55 865.3 314.93 865.3 360.16 904.48 337.55"/>
              <polygon class="cls-2" points="943.96 337.55 904.78 314.93 904.78 360.16 943.96 337.55"/>
              <polygon class="cls-3" points="826.14 337.55 786.97 314.93 786.97 360.16 826.14 337.55"/>
            </g>
          </g>
        </g>
        <g class="cls-4">
          <g>
            <g>
              <polygon class="cls-5" points="37.45 382.54 -1.72 359.92 -1.72 405.15 37.45 382.54"/>
              <polygon class="cls-6" points="76.93 382.54 37.76 359.92 37.76 405.15 76.93 382.54"/>
              <polygon class="cls-2" points="116.41 382.54 77.24 359.92 77.24 405.15 116.41 382.54"/>
            </g>
            <g>
              <polygon class="cls-5" points="194.91 382.54 155.74 359.92 155.74 405.15 194.91 382.54"/>
              <polygon class="cls-6" points="234.39 382.54 195.22 359.92 195.22 405.15 234.39 382.54"/>
              <text/>
              <polygon class="cls-3" points="156.06 382.54 116.89 359.92 116.89 405.15 156.06 382.54"/>
            </g>
            <g>
              <polygon class="cls-5" points="352.38 382.54 313.21 359.92 313.21 405.15 352.38 382.54"/>
              <polygon class="cls-6" points="391.86 382.54 352.68 359.92 352.68 405.15 391.86 382.54"/>
              <polygon class="cls-2" points="431.34 382.54 392.16 359.92 392.16 405.15 431.34 382.54"/>
              <polygon class="cls-3" points="313.52 382.54 274.35 359.92 274.35 405.15 313.52 382.54"/>
            </g>
            <g>
              <polygon class="cls-5" points="509.84 382.54 470.67 359.92 470.67 405.15 509.84 382.54"/>
              <polygon class="cls-6" points="549.32 382.54 510.15 359.92 510.15 405.15 549.32 382.54"/>
              <polygon class="cls-2" points="588.8 382.54 549.63 359.92 549.63 405.15 588.8 382.54"/>
              <polygon class="cls-3" points="470.99 382.54 431.81 359.92 431.81 405.15 470.99 382.54"/>
            </g>
            <g>
              <polygon class="cls-5" points="667.31 382.54 628.13 359.92 628.13 405.15 667.31 382.54"/>
              <polygon class="cls-6" points="706.79 382.54 667.61 359.92 667.61 405.15 706.79 382.54"/>
              <polygon class="cls-2" points="746.27 382.54 707.09 359.92 707.09 405.15 746.27 382.54"/>
              <polygon class="cls-3" points="628.45 382.54 589.28 359.92 589.28 405.15 628.45 382.54"/>
            </g>
            <g>
              <polygon class="cls-5" points="824.77 382.54 785.6 359.92 785.6 405.15 824.77 382.54"/>
              <polygon class="cls-6" points="864.25 382.54 825.08 359.92 825.08 405.15 864.25 382.54"/>
              <polygon class="cls-2" points="903.73 382.54 864.56 359.92 864.56 405.15 903.73 382.54"/>
              <polygon class="cls-3" points="785.92 382.54 746.74 359.92 746.74 405.15 785.92 382.54"/>
            </g>
            <g>
              <polygon class="cls-5" points="982.24 382.54 943.06 359.92 943.06 405.15 982.24 382.54"/>
              <polygon class="cls-6" points="1021.72 382.54 982.54 359.92 982.54 405.15 1021.72 382.54"/>
              <polygon class="cls-2" points="1061.2 382.54 1022.02 359.92 1022.02 405.15 1061.2 382.54"/>
              <polygon class="cls-3" points="943.38 382.54 904.21 359.92 904.21 405.15 943.38 382.54"/>
            </g>
          </g>
          <g>
            <g>
              <polygon class="cls-6" points="38.07 427.53 -1.1 404.91 -1.1 450.14 38.07 427.53"/>
              <polygon class="cls-2" points="77.55 427.53 38.38 404.91 38.38 450.14 77.55 427.53"/>
            </g>
            <g>
              <polygon class="cls-5" points="156.06 427.53 116.89 404.91 116.89 450.14 156.06 427.53"/>
              <polygon class="cls-6" points="195.54 427.53 156.37 404.91 156.37 450.14 195.54 427.53"/>
              <polygon class="cls-2" points="235.02 427.53 195.84 404.91 195.84 450.14 235.02 427.53"/>
              <polygon class="cls-3" points="117.2 427.53 78.03 404.91 78.03 450.14 117.2 427.53"/>
            </g>
            <g>
              <polygon class="cls-5" points="313.52 427.53 274.35 404.91 274.35 450.14 313.52 427.53"/>
              <polygon class="cls-6" points="353 427.53 313.83 404.91 313.83 450.14 353 427.53"/>
              <polygon class="cls-2" points="392.48 427.53 353.31 404.91 353.31 450.14 392.48 427.53"/>
              <polygon class="cls-3" points="274.67 427.53 235.5 404.91 235.5 450.14 274.67 427.53"/>
            </g>
            <g>
              <polygon class="cls-5" points="470.99 427.53 431.81 404.91 431.81 450.14 470.99 427.53"/>
              <polygon class="cls-6" points="510.47 427.53 471.29 404.91 471.29 450.14 510.47 427.53"/>
              <polygon class="cls-2" points="549.95 427.53 510.77 404.91 510.77 450.14 549.95 427.53"/>
              <polygon class="cls-3" points="432.13 427.53 392.96 404.91 392.96 450.14 432.13 427.53"/>
            </g>
            <g>
              <polygon class="cls-5" points="628.45 427.53 589.28 404.91 589.28 450.14 628.45 427.53"/>
              <polygon class="cls-6" points="667.93 427.53 628.76 404.91 628.76 450.14 667.93 427.53"/>
              <polygon class="cls-2" points="707.41 427.53 668.24 404.91 668.24 450.14 707.41 427.53"/>
              <polygon class="cls-3" points="589.6 427.53 550.42 404.91 550.42 450.14 589.6 427.53"/>
            </g>
            <g>
              <polygon class="cls-5" points="785.92 427.53 746.74 404.91 746.74 450.14 785.92 427.53"/>
              <polygon class="cls-6" points="825.4 427.53 786.22 404.91 786.22 450.14 825.4 427.53"/>
              <polygon class="cls-2" points="864.88 427.53 825.7 404.91 825.7 450.14 864.88 427.53"/>
              <polygon class="cls-3" points="747.06 427.53 707.89 404.91 707.89 450.14 747.06 427.53"/>
            </g>
            <g>
              <polygon class="cls-5" points="943.38 427.53 904.21 404.91 904.21 450.14 943.38 427.53"/>
              <polygon class="cls-6" points="982.86 427.53 943.69 404.91 943.69 450.14 982.86 427.53"/>
              <polygon class="cls-2" points="1022.34 427.53 983.17 404.91 983.17 450.14 1022.34 427.53"/>
              <polygon class="cls-3" points="904.53 427.53 865.35 404.91 865.35 450.14 904.53 427.53"/>
            </g>
          </g>
          <g>
            <polygon class="cls-2" points="38.7 472.52 -.47 449.9 -.47 495.13 38.7 472.52"/>
            <g>
              <polygon class="cls-5" points="117.2 472.52 78.03 449.9 78.03 495.13 117.2 472.52"/>
              <polygon class="cls-6" points="156.68 472.52 117.51 449.9 117.51 495.13 156.68 472.52"/>
              <polygon class="cls-2" points="196.16 472.52 156.99 449.9 156.99 495.13 196.16 472.52"/>
              <polygon class="cls-3" points="78.35 472.52 39.18 449.9 39.18 495.13 78.35 472.52"/>
            </g>
            <g>
              <polygon class="cls-5" points="274.67 472.52 235.5 449.9 235.5 495.13 274.67 472.52"/>
              <polygon class="cls-6" points="314.15 472.52 274.97 449.9 274.97 495.13 314.15 472.52"/>
              <polygon class="cls-2" points="353.63 472.52 314.45 449.9 314.45 495.13 353.63 472.52"/>
              <polygon class="cls-3" points="235.81 472.52 196.64 449.9 196.64 495.13 235.81 472.52"/>
            </g>
            <g>
              <polygon class="cls-5" points="432.13 472.52 392.96 449.9 392.96 495.13 432.13 472.52"/>
              <polygon class="cls-6" points="471.61 472.52 432.44 449.9 432.44 495.13 471.61 472.52"/>
              <polygon class="cls-2" points="511.09 472.52 471.92 449.9 471.92 495.13 511.09 472.52"/>
              <polygon class="cls-3" points="393.28 472.52 354.11 449.9 354.11 495.13 393.28 472.52"/>
            </g>
            <g>
              <polygon class="cls-5" points="589.6 472.52 550.42 449.9 550.42 495.13 589.6 472.52"/>
              <polygon class="cls-6" points="629.08 472.52 589.9 449.9 589.9 495.13 629.08 472.52"/>
              <polygon class="cls-2" points="668.56 472.52 629.38 449.9 629.38 495.13 668.56 472.52"/>
              <polygon class="cls-3" points="550.74 472.52 511.57 449.9 511.57 495.13 550.74 472.52"/>
            </g>
            <g>
              <polygon class="cls-5" points="747.06 472.52 707.89 449.9 707.89 495.13 747.06 472.52"/>
              <polygon class="cls-6" points="786.54 472.52 747.37 449.9 747.37 495.13 786.54 472.52"/>
              <polygon class="cls-2" points="826.02 472.52 786.85 449.9 786.85 495.13 826.02 472.52"/>
              <polygon class="cls-3" points="708.21 472.52 669.03 449.9 669.03 495.13 708.21 472.52"/>
            </g>
            <g>
              <polygon class="cls-5" points="904.53 472.52 865.35 449.9 865.35 495.13 904.53 472.52"/>
              <polygon class="cls-6" points="944.01 472.52 904.83 449.9 904.83 495.13 944.01 472.52"/>
              <polygon class="cls-2" points="983.49 472.52 944.31 449.9 944.31 495.13 983.49 472.52"/>
              <polygon class="cls-3" points="865.67 472.52 826.5 449.9 826.5 495.13 865.67 472.52"/>
            </g>
          </g>
          <g>
            <g>
              <polygon class="cls-5" points="77.67 517.51 38.5 494.89 38.5 540.12 77.67 517.51"/>
              <polygon class="cls-6" points="117.15 517.51 77.98 494.89 77.98 540.12 117.15 517.51"/>
              <polygon class="cls-2" points="156.63 517.51 117.46 494.89 117.46 540.12 156.63 517.51"/>
              <polygon class="cls-3" points="38.82 517.51 -.35 494.89 -.35 540.12 38.82 517.51"/>
            </g>
            <g>
              <polygon class="cls-5" points="235.14 517.51 195.97 494.89 195.97 540.12 235.14 517.51"/>
              <polygon class="cls-6" points="274.62 517.51 235.45 494.89 235.45 540.12 274.62 517.51"/>
              <polygon class="cls-2" points="314.1 517.51 274.92 494.89 274.92 540.12 314.1 517.51"/>
              <polygon class="cls-3" points="196.28 517.51 157.11 494.89 157.11 540.12 196.28 517.51"/>
            </g>
            <g>
              <polygon class="cls-5" points="392.6 517.51 353.43 494.89 353.43 540.12 392.6 517.51"/>
              <polygon class="cls-6" points="432.08 517.51 392.91 494.89 392.91 540.12 432.08 517.51"/>
              <polygon class="cls-2" points="471.56 517.51 432.39 494.89 432.39 540.12 471.56 517.51"/>
              <polygon class="cls-3" points="353.75 517.51 314.58 494.89 314.58 540.12 353.75 517.51"/>
            </g>
            <g>
              <polygon class="cls-5" points="550.07 517.51 510.89 494.89 510.89 540.12 550.07 517.51"/>
              <polygon class="cls-6" points="589.55 517.51 550.37 494.89 550.37 540.12 589.55 517.51"/>
              <polygon class="cls-2" points="629.03 517.51 589.85 494.89 589.85 540.12 629.03 517.51"/>
              <polygon class="cls-3" points="511.21 517.51 472.04 494.89 472.04 540.12 511.21 517.51"/>
            </g>
            <g>
              <polygon class="cls-5" points="707.53 517.51 668.36 494.89 668.36 540.12 707.53 517.51"/>
              <polygon class="cls-6" points="747.01 517.51 707.84 494.89 707.84 540.12 747.01 517.51"/>
              <polygon class="cls-2" points="786.49 517.51 747.32 494.89 747.32 540.12 786.49 517.51"/>
              <polygon class="cls-3" points="668.68 517.51 629.5 494.89 629.5 540.12 668.68 517.51"/>
            </g>
            <g>
              <polygon class="cls-5" points="865 517.51 825.82 494.89 825.82 540.12 865 517.51"/>
              <polygon class="cls-6" points="904.48 517.51 865.3 494.89 865.3 540.12 904.48 517.51"/>
              <polygon class="cls-2" points="943.96 517.51 904.78 494.89 904.78 540.12 943.96 517.51"/>
              <polygon class="cls-3" points="826.14 517.51 786.97 494.89 786.97 540.12 826.14 517.51"/>
            </g>
          </g>
          <g>
            <g>
              <polygon class="cls-5" points="37.45 562.49 -1.72 539.88 -1.72 585.11 37.45 562.49"/>
              <polygon class="cls-6" points="76.93 562.49 37.76 539.88 37.76 585.11 76.93 562.49"/>
              <polygon class="cls-2" points="116.41 562.49 77.24 539.88 77.24 585.11 116.41 562.49"/>
            </g>
            <g>
              <polygon class="cls-5" points="194.91 562.49 155.74 539.88 155.74 585.11 194.91 562.49"/>
              <polygon class="cls-6" points="234.39 562.49 195.22 539.88 195.22 585.11 234.39 562.49"/>
              <polygon class="cls-2" points="273.87 562.49 234.7 539.88 234.7 585.11 273.87 562.49"/>
              <polygon class="cls-3" points="156.06 562.49 116.89 539.88 116.89 585.11 156.06 562.49"/>
            </g>
            <g>
              <polygon class="cls-5" points="352.38 562.49 313.21 539.88 313.21 585.11 352.38 562.49"/>
              <polygon class="cls-6" points="391.86 562.49 352.68 539.88 352.68 585.11 391.86 562.49"/>
              <polygon class="cls-2" points="431.34 562.49 392.16 539.88 392.16 585.11 431.34 562.49"/>
              <polygon class="cls-3" points="313.52 562.49 274.35 539.88 274.35 585.11 313.52 562.49"/>
            </g>
            <g>
              <polygon class="cls-5" points="509.84 562.49 470.67 539.88 470.67 585.11 509.84 562.49"/>
              <polygon class="cls-6" points="549.32 562.49 510.15 539.88 510.15 585.11 549.32 562.49"/>
              <polygon class="cls-2" points="588.8 562.49 549.63 539.88 549.63 585.11 588.8 562.49"/>
              <polygon class="cls-3" points="470.99 562.49 431.81 539.88 431.81 585.11 470.99 562.49"/>
            </g>
            <g>
              <polygon class="cls-5" points="667.31 562.49 628.13 539.88 628.13 585.11 667.31 562.49"/>
              <polygon class="cls-6" points="706.79 562.49 667.61 539.88 667.61 585.11 706.79 562.49"/>
              <polygon class="cls-2" points="746.27 562.49 707.09 539.88 707.09 585.11 746.27 562.49"/>
              <polygon class="cls-3" points="628.45 562.49 589.28 539.88 589.28 585.11 628.45 562.49"/>
            </g>
            <g>
              <polygon class="cls-5" points="824.77 562.49 785.6 539.88 785.6 585.11 824.77 562.49"/>
              <polygon class="cls-6" points="864.25 562.49 825.08 539.88 825.08 585.11 864.25 562.49"/>
              <polygon class="cls-2" points="903.73 562.49 864.56 539.88 864.56 585.11 903.73 562.49"/>
              <polygon class="cls-3" points="785.92 562.49 746.74 539.88 746.74 585.11 785.92 562.49"/>
            </g>
            <g>
              <polygon class="cls-5" points="982.24 562.49 943.06 539.88 943.06 585.11 982.24 562.49"/>
              <polygon class="cls-6" points="1021.72 562.49 982.54 539.88 982.54 585.11 1021.72 562.49"/>
              <polygon class="cls-2" points="1061.2 562.49 1022.02 539.88 1022.02 585.11 1061.2 562.49"/>
              <polygon class="cls-3" points="943.38 562.49 904.21 539.88 904.21 585.11 943.38 562.49"/>
            </g>
          </g>
          <g>
            <g>
              <polygon class="cls-6" points="38.07 607.48 -1.1 584.87 -1.1 630.1 38.07 607.48"/>
              <polygon class="cls-2" points="77.55 607.48 38.38 584.87 38.38 630.1 77.55 607.48"/>
            </g>
            <g>
              <polygon class="cls-5" points="156.06 607.48 116.89 584.87 116.89 630.1 156.06 607.48"/>
              <polygon class="cls-6" points="195.54 607.48 156.37 584.87 156.37 630.1 195.54 607.48"/>
              <polygon class="cls-2" points="235.02 607.48 195.84 584.87 195.84 630.1 235.02 607.48"/>
              <polygon class="cls-3" points="117.2 607.48 78.03 584.87 78.03 630.1 117.2 607.48"/>
            </g>
            <g>
              <polygon class="cls-5" points="313.52 607.48 274.35 584.87 274.35 630.1 313.52 607.48"/>
              <polygon class="cls-6" points="353 607.48 313.83 584.87 313.83 630.1 353 607.48"/>
              <polygon class="cls-2" points="392.48 607.48 353.31 584.87 353.31 630.1 392.48 607.48"/>
              <polygon class="cls-3" points="274.67 607.48 235.5 584.87 235.5 630.1 274.67 607.48"/>
            </g>
            <g>
              <polygon class="cls-5" points="470.99 607.48 431.81 584.87 431.81 630.1 470.99 607.48"/>
              <polygon class="cls-6" points="510.47 607.48 471.29 584.87 471.29 630.1 510.47 607.48"/>
              <polygon class="cls-2" points="549.95 607.48 510.77 584.87 510.77 630.1 549.95 607.48"/>
              <polygon class="cls-3" points="432.13 607.48 392.96 584.87 392.96 630.1 432.13 607.48"/>
            </g>
            <g>
              <polygon class="cls-5" points="628.45 607.48 589.28 584.87 589.28 630.1 628.45 607.48"/>
              <polygon class="cls-6" points="667.93 607.48 628.76 584.87 628.76 630.1 667.93 607.48"/>
              <polygon class="cls-2" points="707.41 607.48 668.24 584.87 668.24 630.1 707.41 607.48"/>
              <polygon class="cls-3" points="589.6 607.48 550.42 584.87 550.42 630.1 589.6 607.48"/>
            </g>
            <g>
              <polygon class="cls-5" points="785.92 607.48 746.74 584.87 746.74 630.1 785.92 607.48"/>
              <polygon class="cls-6" points="825.4 607.48 786.22 584.87 786.22 630.1 825.4 607.48"/>
              <polygon class="cls-2" points="864.88 607.48 825.7 584.87 825.7 630.1 864.88 607.48"/>
              <polygon class="cls-3" points="747.06 607.48 707.89 584.87 707.89 630.1 747.06 607.48"/>
            </g>
            <g>
              <polygon class="cls-5" points="943.38 607.48 904.21 584.87 904.21 630.1 943.38 607.48"/>
              <polygon class="cls-6" points="982.86 607.48 943.69 584.87 943.69 630.1 982.86 607.48"/>
              <polygon class="cls-2" points="1022.34 607.48 983.17 584.87 983.17 630.1 1022.34 607.48"/>
              <polygon class="cls-3" points="904.53 607.48 865.35 584.87 865.35 630.1 904.53 607.48"/>
            </g>
          </g>
          <g>
            <polygon class="cls-2" points="38.7 652.47 -.47 629.86 -.47 675.09 38.7 652.47"/>
            <g>
              <polygon class="cls-5" points="117.2 652.47 78.03 629.86 78.03 675.09 117.2 652.47"/>
              <polygon class="cls-6" points="156.68 652.47 117.51 629.86 117.51 675.09 156.68 652.47"/>
              <polygon class="cls-2" points="196.16 652.47 156.99 629.86 156.99 675.09 196.16 652.47"/>
              <polygon class="cls-3" points="78.35 652.47 39.18 629.86 39.18 675.09 78.35 652.47"/>
            </g>
            <g>
              <polygon class="cls-5" points="274.67 652.47 235.5 629.86 235.5 675.09 274.67 652.47"/>
              <polygon class="cls-6" points="314.15 652.47 274.97 629.86 274.97 675.09 314.15 652.47"/>
              <polygon class="cls-2" points="353.63 652.47 314.45 629.86 314.45 675.09 353.63 652.47"/>
              <polygon class="cls-3" points="235.81 652.47 196.64 629.86 196.64 675.09 235.81 652.47"/>
            </g>
            <g>
              <polygon class="cls-5" points="432.13 652.47 392.96 629.86 392.96 675.09 432.13 652.47"/>
              <polygon class="cls-6" points="471.61 652.47 432.44 629.86 432.44 675.09 471.61 652.47"/>
              <polygon class="cls-2" points="511.09 652.47 471.92 629.86 471.92 675.09 511.09 652.47"/>
              <polygon class="cls-3" points="393.28 652.47 354.11 629.86 354.11 675.09 393.28 652.47"/>
            </g>
            <g>
              <polygon class="cls-5" points="589.6 652.47 550.42 629.86 550.42 675.09 589.6 652.47"/>
              <polygon class="cls-6" points="629.08 652.47 589.9 629.86 589.9 675.09 629.08 652.47"/>
              <polygon class="cls-2" points="668.56 652.47 629.38 629.86 629.38 675.09 668.56 652.47"/>
              <polygon class="cls-3" points="550.74 652.47 511.57 629.86 511.57 675.09 550.74 652.47"/>
            </g>
            <g>
              <polygon class="cls-5" points="747.06 652.47 707.89 629.86 707.89 675.09 747.06 652.47"/>
              <polygon class="cls-6" points="786.54 652.47 747.37 629.86 747.37 675.09 786.54 652.47"/>
              <polygon class="cls-2" points="826.02 652.47 786.85 629.86 786.85 675.09 826.02 652.47"/>
              <polygon class="cls-3" points="708.21 652.47 669.03 629.86 669.03 675.09 708.21 652.47"/>
            </g>
            <g>
              <polygon class="cls-5" points="904.53 652.47 865.35 629.86 865.35 675.09 904.53 652.47"/>
              <polygon class="cls-6" points="944.01 652.47 904.83 629.86 904.83 675.09 944.01 652.47"/>
              <polygon class="cls-2" points="983.49 652.47 944.31 629.86 944.31 675.09 983.49 652.47"/>
              <polygon class="cls-3" points="865.67 652.47 826.5 629.86 826.5 675.09 865.67 652.47"/>
            </g>
          </g>
          <g>
            <g>
              <polygon class="cls-5" points="77.67 697.46 38.5 674.85 38.5 720.08 77.67 697.46"/>
              <polygon class="cls-6" points="117.15 697.46 77.98 674.85 77.98 720.08 117.15 697.46"/>
              <polygon class="cls-2" points="156.63 697.46 117.46 674.85 117.46 720.08 156.63 697.46"/>
              <polygon class="cls-3" points="38.82 697.46 -.35 674.85 -.35 720.08 38.82 697.46"/>
            </g>
            <g>
              <polygon class="cls-5" points="235.14 697.46 195.97 674.85 195.97 720.08 235.14 697.46"/>
              <polygon class="cls-6" points="274.62 697.46 235.45 674.85 235.45 720.08 274.62 697.46"/>
              <polygon class="cls-2" points="314.1 697.46 274.92 674.85 274.92 720.08 314.1 697.46"/>
              <polygon class="cls-3" points="196.28 697.46 157.11 674.85 157.11 720.08 196.28 697.46"/>
            </g>
            <g>
              <polygon class="cls-5" points="392.6 697.46 353.43 674.85 353.43 720.08 392.6 697.46"/>
              <polygon class="cls-6" points="432.08 697.46 392.91 674.85 392.91 720.08 432.08 697.46"/>
              <polygon class="cls-2" points="471.56 697.46 432.39 674.85 432.39 720.08 471.56 697.46"/>
              <polygon class="cls-3" points="353.75 697.46 314.58 674.85 314.58 720.08 353.75 697.46"/>
            </g>
            <g>
              <polygon class="cls-5" points="550.07 697.46 510.89 674.85 510.89 720.08 550.07 697.46"/>
              <polygon class="cls-6" points="589.55 697.46 550.37 674.85 550.37 720.08 589.55 697.46"/>
              <polygon class="cls-2" points="629.03 697.46 589.85 674.85 589.85 720.08 629.03 697.46"/>
              <polygon class="cls-3" points="511.21 697.46 472.04 674.85 472.04 720.08 511.21 697.46"/>
            </g>
            <g>
              <polygon class="cls-5" points="707.53 697.46 668.36 674.85 668.36 720.08 707.53 697.46"/>
              <polygon class="cls-6" points="747.01 697.46 707.84 674.85 707.84 720.08 747.01 697.46"/>
              <polygon class="cls-2" points="786.49 697.46 747.32 674.85 747.32 720.08 786.49 697.46"/>
              <polygon class="cls-3" points="668.68 697.46 629.5 674.85 629.5 720.08 668.68 697.46"/>
            </g>
            <g>
              <polygon class="cls-5" points="865 697.46 825.82 674.85 825.82 720.08 865 697.46"/>
              <polygon class="cls-6" points="904.48 697.46 865.3 674.85 865.3 720.08 904.48 697.46"/>
              <polygon class="cls-2" points="943.96 697.46 904.78 674.85 904.78 720.08 943.96 697.46"/>
              <polygon class="cls-3" points="826.14 697.46 786.97 674.85 786.97 720.08 826.14 697.46"/>
            </g>
          </g>
        </g>
        <g class="cls-4">
          <g>
            <g>
              <polygon class="cls-5" points="37.45 742.45 -1.72 719.84 -1.72 765.07 37.45 742.45"/>
              <polygon class="cls-6" points="76.93 742.45 37.76 719.84 37.76 765.07 76.93 742.45"/>
              <polygon class="cls-2" points="116.41 742.45 77.24 719.84 77.24 765.07 116.41 742.45"/>
            </g>
            <g>
              <polygon class="cls-5" points="194.91 742.45 155.74 719.84 155.74 765.07 194.91 742.45"/>
              <polygon class="cls-6" points="234.39 742.45 195.22 719.84 195.22 765.07 234.39 742.45"/>
              <polygon class="cls-2" points="273.87 742.45 234.7 719.84 234.7 765.07 273.87 742.45"/>
              <polygon class="cls-3" points="156.06 742.45 116.89 719.84 116.89 765.07 156.06 742.45"/>
            </g>
            <g>
              <polygon class="cls-5" points="352.38 742.45 313.21 719.84 313.21 765.07 352.38 742.45"/>
              <polygon class="cls-6" points="391.86 742.45 352.68 719.84 352.68 765.07 391.86 742.45"/>
              <polygon class="cls-2" points="431.34 742.45 392.16 719.84 392.16 765.07 431.34 742.45"/>
              <polygon class="cls-3" points="313.52 742.45 274.35 719.84 274.35 765.07 313.52 742.45"/>
            </g>
            <g>
              <polygon class="cls-5" points="509.84 742.45 470.67 719.84 470.67 765.07 509.84 742.45"/>
              <polygon class="cls-6" points="549.32 742.45 510.15 719.84 510.15 765.07 549.32 742.45"/>
              <polygon class="cls-2" points="588.8 742.45 549.63 719.84 549.63 765.07 588.8 742.45"/>
              <polygon class="cls-3" points="470.99 742.45 431.81 719.84 431.81 765.07 470.99 742.45"/>
            </g>
            <g>
              <polygon class="cls-5" points="667.31 742.45 628.13 719.84 628.13 765.07 667.31 742.45"/>
              <polygon class="cls-6" points="706.79 742.45 667.61 719.84 667.61 765.07 706.79 742.45"/>
              <polygon class="cls-2" points="746.27 742.45 707.09 719.84 707.09 765.07 746.27 742.45"/>
              <polygon class="cls-3" points="628.45 742.45 589.28 719.84 589.28 765.07 628.45 742.45"/>
            </g>
            <g>
              <polygon class="cls-5" points="824.77 742.45 785.6 719.84 785.6 765.07 824.77 742.45"/>
              <polygon class="cls-6" points="864.25 742.45 825.08 719.84 825.08 765.07 864.25 742.45"/>
              <polygon class="cls-2" points="903.73 742.45 864.56 719.84 864.56 765.07 903.73 742.45"/>
              <polygon class="cls-3" points="785.92 742.45 746.74 719.84 746.74 765.07 785.92 742.45"/>
            </g>
            <g>
              <polygon class="cls-5" points="982.24 742.45 943.06 719.84 943.06 765.07 982.24 742.45"/>
              <polygon class="cls-6" points="1021.72 742.45 982.54 719.84 982.54 765.07 1021.72 742.45"/>
              <polygon class="cls-2" points="1061.2 742.45 1022.02 719.84 1022.02 765.07 1061.2 742.45"/>
              <polygon class="cls-3" points="943.38 742.45 904.21 719.84 904.21 765.07 943.38 742.45"/>
            </g>
          </g>
          <g>
            <g>
              <polygon class="cls-6" points="38.07 787.44 -1.1 764.83 -1.1 810.06 38.07 787.44"/>
              <polygon class="cls-2" points="77.55 787.44 38.38 764.83 38.38 810.06 77.55 787.44"/>
            </g>
            <g>
              <polygon class="cls-5" points="156.06 787.44 116.89 764.83 116.89 810.06 156.06 787.44"/>
              <polygon class="cls-6" points="195.54 787.44 156.37 764.83 156.37 810.06 195.54 787.44"/>
              <polygon class="cls-2" points="235.02 787.44 195.84 764.83 195.84 810.06 235.02 787.44"/>
              <polygon class="cls-3" points="117.2 787.44 78.03 764.83 78.03 810.06 117.2 787.44"/>
            </g>
            <g>
              <polygon class="cls-5" points="313.52 787.44 274.35 764.83 274.35 810.06 313.52 787.44"/>
              <polygon class="cls-6" points="353 787.44 313.83 764.83 313.83 810.06 353 787.44"/>
              <polygon class="cls-2" points="392.48 787.44 353.31 764.83 353.31 810.06 392.48 787.44"/>
              <polygon class="cls-3" points="274.67 787.44 235.5 764.83 235.5 810.06 274.67 787.44"/>
            </g>
            <g>
              <polygon class="cls-5" points="470.99 787.44 431.81 764.83 431.81 810.06 470.99 787.44"/>
              <polygon class="cls-6" points="510.47 787.44 471.29 764.83 471.29 810.06 510.47 787.44"/>
              <polygon class="cls-2" points="549.95 787.44 510.77 764.83 510.77 810.06 549.95 787.44"/>
              <polygon class="cls-3" points="432.13 787.44 392.96 764.83 392.96 810.06 432.13 787.44"/>
            </g>
            <g>
              <polygon class="cls-5" points="628.45 787.44 589.28 764.83 589.28 810.06 628.45 787.44"/>
              <polygon class="cls-6" points="667.93 787.44 628.76 764.83 628.76 810.06 667.93 787.44"/>
              <polygon class="cls-2" points="707.41 787.44 668.24 764.83 668.24 810.06 707.41 787.44"/>
              <polygon class="cls-3" points="589.6 787.44 550.42 764.83 550.42 810.06 589.6 787.44"/>
            </g>
            <g>
              <polygon class="cls-5" points="785.92 787.44 746.74 764.83 746.74 810.06 785.92 787.44"/>
              <polygon class="cls-6" points="825.4 787.44 786.22 764.83 786.22 810.06 825.4 787.44"/>
              <polygon class="cls-2" points="864.88 787.44 825.7 764.83 825.7 810.06 864.88 787.44"/>
              <polygon class="cls-3" points="747.06 787.44 707.89 764.83 707.89 810.06 747.06 787.44"/>
            </g>
            <g>
              <polygon class="cls-5" points="943.38 787.44 904.21 764.83 904.21 810.06 943.38 787.44"/>
              <polygon class="cls-6" points="982.86 787.44 943.69 764.83 943.69 810.06 982.86 787.44"/>
              <polygon class="cls-2" points="1022.34 787.44 983.17 764.83 983.17 810.06 1022.34 787.44"/>
              <polygon class="cls-3" points="904.53 787.44 865.35 764.83 865.35 810.06 904.53 787.44"/>
            </g>
          </g>
          <g>
            <polygon class="cls-2" points="38.7 832.43 -.47 809.82 -.47 855.05 38.7 832.43"/>
            <g>
              <polygon class="cls-5" points="117.2 832.43 78.03 809.82 78.03 855.05 117.2 832.43"/>
              <polygon class="cls-6" points="156.68 832.43 117.51 809.82 117.51 855.05 156.68 832.43"/>
              <polygon class="cls-2" points="196.16 832.43 156.99 809.82 156.99 855.05 196.16 832.43"/>
              <polygon class="cls-3" points="78.35 832.43 39.18 809.82 39.18 855.05 78.35 832.43"/>
            </g>
            <g>
              <polygon class="cls-5" points="274.67 832.43 235.5 809.82 235.5 855.05 274.67 832.43"/>
              <polygon class="cls-6" points="314.15 832.43 274.97 809.82 274.97 855.05 314.15 832.43"/>
              <polygon class="cls-2" points="353.63 832.43 314.45 809.82 314.45 855.05 353.63 832.43"/>
              <polygon class="cls-3" points="235.81 832.43 196.64 809.82 196.64 855.05 235.81 832.43"/>
            </g>
            <g>
              <polygon class="cls-5" points="432.13 832.43 392.96 809.82 392.96 855.05 432.13 832.43"/>
              <polygon class="cls-6" points="471.61 832.43 432.44 809.82 432.44 855.05 471.61 832.43"/>
              <polygon class="cls-2" points="511.09 832.43 471.92 809.82 471.92 855.05 511.09 832.43"/>
              <polygon class="cls-3" points="393.28 832.43 354.11 809.82 354.11 855.05 393.28 832.43"/>
            </g>
            <g>
              <polygon class="cls-5" points="589.6 832.43 550.42 809.82 550.42 855.05 589.6 832.43"/>
              <polygon class="cls-6" points="629.08 832.43 589.9 809.82 589.9 855.05 629.08 832.43"/>
              <polygon class="cls-2" points="668.56 832.43 629.38 809.82 629.38 855.05 668.56 832.43"/>
              <polygon class="cls-3" points="550.74 832.43 511.57 809.82 511.57 855.05 550.74 832.43"/>
            </g>
            <g>
              <polygon class="cls-5" points="747.06 832.43 707.89 809.82 707.89 855.05 747.06 832.43"/>
              <polygon class="cls-6" points="786.54 832.43 747.37 809.82 747.37 855.05 786.54 832.43"/>
              <polygon class="cls-2" points="826.02 832.43 786.85 809.82 786.85 855.05 826.02 832.43"/>
              <polygon class="cls-3" points="708.21 832.43 669.03 809.82 669.03 855.05 708.21 832.43"/>
            </g>
            <g>
              <polygon class="cls-5" points="904.53 832.43 865.35 809.82 865.35 855.05 904.53 832.43"/>
              <polygon class="cls-6" points="944.01 832.43 904.83 809.82 904.83 855.05 944.01 832.43"/>
              <polygon class="cls-2" points="983.49 832.43 944.31 809.82 944.31 855.05 983.49 832.43"/>
              <polygon class="cls-3" points="865.67 832.43 826.5 809.82 826.5 855.05 865.67 832.43"/>
            </g>
          </g>
          <g>
            <g>
              <polygon class="cls-5" points="77.67 877.42 38.5 854.81 38.5 900.04 77.67 877.42"/>
              <polygon class="cls-6" points="117.15 877.42 77.98 854.81 77.98 900.04 117.15 877.42"/>
              <polygon class="cls-2" points="156.63 877.42 117.46 854.81 117.46 900.04 156.63 877.42"/>
              <polygon class="cls-3" points="38.82 877.42 -.35 854.81 -.35 900.04 38.82 877.42"/>
            </g>
            <g>
              <polygon class="cls-5" points="235.14 877.42 195.97 854.81 195.97 900.04 235.14 877.42"/>
              <polygon class="cls-6" points="274.62 877.42 235.45 854.81 235.45 900.04 274.62 877.42"/>
              <polygon class="cls-2" points="314.1 877.42 274.92 854.81 274.92 900.04 314.1 877.42"/>
              <polygon class="cls-3" points="196.28 877.42 157.11 854.81 157.11 900.04 196.28 877.42"/>
            </g>
            <g>
              <polygon class="cls-5" points="392.6 877.42 353.43 854.81 353.43 900.04 392.6 877.42"/>
              <polygon class="cls-6" points="432.08 877.42 392.91 854.81 392.91 900.04 432.08 877.42"/>
              <polygon class="cls-2" points="471.56 877.42 432.39 854.81 432.39 900.04 471.56 877.42"/>
              <polygon class="cls-3" points="353.75 877.42 314.58 854.81 314.58 900.04 353.75 877.42"/>
            </g>
            <g>
              <polygon class="cls-5" points="550.07 877.42 510.89 854.81 510.89 900.04 550.07 877.42"/>
              <polygon class="cls-6" points="589.55 877.42 550.37 854.81 550.37 900.04 589.55 877.42"/>
              <polygon class="cls-2" points="629.03 877.42 589.85 854.81 589.85 900.04 629.03 877.42"/>
              <polygon class="cls-3" points="511.21 877.42 472.04 854.81 472.04 900.04 511.21 877.42"/>
            </g>
            <g>
              <polygon class="cls-5" points="707.53 877.42 668.36 854.81 668.36 900.04 707.53 877.42"/>
              <polygon class="cls-6" points="747.01 877.42 707.84 854.81 707.84 900.04 747.01 877.42"/>
              <polygon class="cls-2" points="786.49 877.42 747.32 854.81 747.32 900.04 786.49 877.42"/>
              <polygon class="cls-3" points="668.68 877.42 629.5 854.81 629.5 900.04 668.68 877.42"/>
            </g>
            <g>
              <polygon class="cls-5" points="865 877.42 825.82 854.81 825.82 900.04 865 877.42"/>
              <polygon class="cls-6" points="904.48 877.42 865.3 854.81 865.3 900.04 904.48 877.42"/>
              <polygon class="cls-2" points="943.96 877.42 904.78 854.81 904.78 900.04 943.96 877.42"/>
              <polygon class="cls-3" points="826.14 877.42 786.97 854.81 786.97 900.04 826.14 877.42"/>
            </g>
          </g>
          <g>
            <g>
              <polygon class="cls-5" points="37.45 922.41 -1.72 899.8 -1.72 945.03 37.45 922.41"/>
              <polygon class="cls-6" points="76.93 922.41 37.76 899.8 37.76 945.03 76.93 922.41"/>
              <polygon class="cls-2" points="116.41 922.41 77.24 899.8 77.24 945.03 116.41 922.41"/>
            </g>
            <g>
              <polygon class="cls-5" points="194.91 922.41 155.74 899.8 155.74 945.03 194.91 922.41"/>
              <polygon class="cls-6" points="234.39 922.41 195.22 899.8 195.22 945.03 234.39 922.41"/>
              <polygon class="cls-2" points="273.87 922.41 234.7 899.8 234.7 945.03 273.87 922.41"/>
              <polygon class="cls-3" points="156.06 922.41 116.89 899.8 116.89 945.03 156.06 922.41"/>
            </g>
            <g>
              <polygon class="cls-5" points="352.38 922.41 313.21 899.8 313.21 945.03 352.38 922.41"/>
              <polygon class="cls-6" points="391.86 922.41 352.68 899.8 352.68 945.03 391.86 922.41"/>
              <polygon class="cls-2" points="431.34 922.41 392.16 899.8 392.16 945.03 431.34 922.41"/>
              <polygon class="cls-3" points="313.52 922.41 274.35 899.8 274.35 945.03 313.52 922.41"/>
            </g>
            <g>
              <polygon class="cls-5" points="509.84 922.41 470.67 899.8 470.67 945.03 509.84 922.41"/>
              <polygon class="cls-6" points="549.32 922.41 510.15 899.8 510.15 945.03 549.32 922.41"/>
              <polygon class="cls-2" points="588.8 922.41 549.63 899.8 549.63 945.03 588.8 922.41"/>
              <polygon class="cls-3" points="470.99 922.41 431.81 899.8 431.81 945.03 470.99 922.41"/>
            </g>
            <g>
              <polygon class="cls-5" points="667.31 922.41 628.13 899.8 628.13 945.03 667.31 922.41"/>
              <polygon class="cls-6" points="706.79 922.41 667.61 899.8 667.61 945.03 706.79 922.41"/>
              <polygon class="cls-2" points="746.27 922.41 707.09 899.8 707.09 945.03 746.27 922.41"/>
              <polygon class="cls-3" points="628.45 922.41 589.28 899.8 589.28 945.03 628.45 922.41"/>
            </g>
            <g>
              <polygon class="cls-5" points="824.77 922.41 785.6 899.8 785.6 945.03 824.77 922.41"/>
              <polygon class="cls-6" points="864.25 922.41 825.08 899.8 825.08 945.03 864.25 922.41"/>
              <polygon class="cls-2" points="903.73 922.41 864.56 899.8 864.56 945.03 903.73 922.41"/>
              <polygon class="cls-3" points="785.92 922.41 746.74 899.8 746.74 945.03 785.92 922.41"/>
            </g>
            <g>
              <polygon class="cls-5" points="982.24 922.41 943.06 899.8 943.06 945.03 982.24 922.41"/>
              <polygon class="cls-6" points="1021.72 922.41 982.54 899.8 982.54 945.03 1021.72 922.41"/>
              <polygon class="cls-2" points="1061.2 922.41 1022.02 899.8 1022.02 945.03 1061.2 922.41"/>
              <polygon class="cls-3" points="943.38 922.41 904.21 899.8 904.21 945.03 943.38 922.41"/>
            </g>
          </g>
          <g>
            <g>
              <polygon class="cls-6" points="38.07 967.4 -1.1 944.79 -1.1 990.02 38.07 967.4"/>
              <polygon class="cls-2" points="77.55 967.4 38.38 944.79 38.38 990.02 77.55 967.4"/>
            </g>
            <g>
              <polygon class="cls-5" points="156.06 967.4 116.89 944.79 116.89 990.02 156.06 967.4"/>
              <polygon class="cls-6" points="195.54 967.4 156.37 944.79 156.37 990.02 195.54 967.4"/>
              <polygon class="cls-2" points="235.02 967.4 195.84 944.79 195.84 990.02 235.02 967.4"/>
              <polygon class="cls-3" points="117.2 967.4 78.03 944.79 78.03 990.02 117.2 967.4"/>
            </g>
            <g>
              <polygon class="cls-5" points="313.52 967.4 274.35 944.79 274.35 990.02 313.52 967.4"/>
              <polygon class="cls-6" points="353 967.4 313.83 944.79 313.83 990.02 353 967.4"/>
              <polygon class="cls-2" points="392.48 967.4 353.31 944.79 353.31 990.02 392.48 967.4"/>
              <polygon class="cls-3" points="274.67 967.4 235.5 944.79 235.5 990.02 274.67 967.4"/>
            </g>
            <g>
              <polygon class="cls-5" points="470.99 967.4 431.81 944.79 431.81 990.02 470.99 967.4"/>
              <polygon class="cls-6" points="510.47 967.4 471.29 944.79 471.29 990.02 510.47 967.4"/>
              <polygon class="cls-2" points="549.95 967.4 510.77 944.79 510.77 990.02 549.95 967.4"/>
              <polygon class="cls-3" points="432.13 967.4 392.96 944.79 392.96 990.02 432.13 967.4"/>
            </g>
            <g>
              <polygon class="cls-5" points="628.45 967.4 589.28 944.79 589.28 990.02 628.45 967.4"/>
              <polygon class="cls-6" points="667.93 967.4 628.76 944.79 628.76 990.02 667.93 967.4"/>
              <polygon class="cls-2" points="707.41 967.4 668.24 944.79 668.24 990.02 707.41 967.4"/>
              <polygon class="cls-3" points="589.6 967.4 550.42 944.79 550.42 990.02 589.6 967.4"/>
            </g>
            <g>
              <polygon class="cls-5" points="785.92 967.4 746.74 944.79 746.74 990.02 785.92 967.4"/>
              <polygon class="cls-6" points="825.4 967.4 786.22 944.79 786.22 990.02 825.4 967.4"/>
              <polygon class="cls-2" points="864.88 967.4 825.7 944.79 825.7 990.02 864.88 967.4"/>
              <polygon class="cls-3" points="747.06 967.4 707.89 944.79 707.89 990.02 747.06 967.4"/>
            </g>
            <g>
              <polygon class="cls-5" points="943.38 967.4 904.21 944.79 904.21 990.02 943.38 967.4"/>
              <polygon class="cls-6" points="982.86 967.4 943.69 944.79 943.69 990.02 982.86 967.4"/>
              <polygon class="cls-2" points="1022.34 967.4 983.17 944.79 983.17 990.02 1022.34 967.4"/>
              <polygon class="cls-3" points="904.53 967.4 865.35 944.79 865.35 990.02 904.53 967.4"/>
            </g>
          </g>
          <g>
            <polygon class="cls-2" points="38.7 1012.39 -.47 989.78 -.47 1035.01 38.7 1012.39"/>
            <g>
              <polygon class="cls-5" points="117.2 1012.39 78.03 989.78 78.03 1035.01 117.2 1012.39"/>
              <polygon class="cls-6" points="156.68 1012.39 117.51 989.78 117.51 1035.01 156.68 1012.39"/>
              <polygon class="cls-2" points="196.16 1012.39 156.99 989.78 156.99 1035.01 196.16 1012.39"/>
              <polygon class="cls-3" points="78.35 1012.39 39.18 989.78 39.18 1035.01 78.35 1012.39"/>
            </g>
            <g>
              <polygon class="cls-5" points="274.67 1012.39 235.5 989.78 235.5 1035.01 274.67 1012.39"/>
              <polygon class="cls-6" points="314.15 1012.39 274.97 989.78 274.97 1035.01 314.15 1012.39"/>
              <polygon class="cls-2" points="353.63 1012.39 314.45 989.78 314.45 1035.01 353.63 1012.39"/>
              <polygon class="cls-3" points="235.81 1012.39 196.64 989.78 196.64 1035.01 235.81 1012.39"/>
            </g>
            <g>
              <polygon class="cls-5" points="432.13 1012.39 392.96 989.78 392.96 1035.01 432.13 1012.39"/>
              <polygon class="cls-6" points="471.61 1012.39 432.44 989.78 432.44 1035.01 471.61 1012.39"/>
              <polygon class="cls-2" points="511.09 1012.39 471.92 989.78 471.92 1035.01 511.09 1012.39"/>
              <polygon class="cls-3" points="393.28 1012.39 354.11 989.78 354.11 1035.01 393.28 1012.39"/>
            </g>
            <g>
              <polygon class="cls-5" points="589.6 1012.39 550.42 989.78 550.42 1035.01 589.6 1012.39"/>
              <polygon class="cls-6" points="629.08 1012.39 589.9 989.78 589.9 1035.01 629.08 1012.39"/>
              <polygon class="cls-2" points="668.56 1012.39 629.38 989.78 629.38 1035.01 668.56 1012.39"/>
              <polygon class="cls-3" points="550.74 1012.39 511.57 989.78 511.57 1035.01 550.74 1012.39"/>
            </g>
            <g>
              <polygon class="cls-5" points="747.06 1012.39 707.89 989.78 707.89 1035.01 747.06 1012.39"/>
              <polygon class="cls-6" points="786.54 1012.39 747.37 989.78 747.37 1035.01 786.54 1012.39"/>
              <polygon class="cls-2" points="826.02 1012.39 786.85 989.78 786.85 1035.01 826.02 1012.39"/>
              <polygon class="cls-3" points="708.21 1012.39 669.03 989.78 669.03 1035.01 708.21 1012.39"/>
            </g>
            <g>
              <polygon class="cls-5" points="904.53 1012.39 865.35 989.78 865.35 1035.01 904.53 1012.39"/>
              <polygon class="cls-6" points="944.01 1012.39 904.83 989.78 904.83 1035.01 944.01 1012.39"/>
              <polygon class="cls-2" points="983.49 1012.39 944.31 989.78 944.31 1035.01 983.49 1012.39"/>
              <polygon class="cls-3" points="865.67 1012.39 826.5 989.78 826.5 1035.01 865.67 1012.39"/>
            </g>
          </g>
          <g>
            <g>
              <polygon class="cls-5" points="77.67 1057.38 38.5 1034.77 38.5 1080 77.67 1057.38"/>
              <polygon class="cls-6" points="117.15 1057.38 77.98 1034.77 77.98 1080 117.15 1057.38"/>
              <polygon class="cls-2" points="156.63 1057.38 117.46 1034.77 117.46 1080 156.63 1057.38"/>
              <polygon class="cls-3" points="38.82 1057.38 -.35 1034.77 -.35 1080 38.82 1057.38"/>
            </g>
            <g>
              <polygon class="cls-5" points="235.14 1057.38 195.97 1034.77 195.97 1080 235.14 1057.38"/>
              <polygon class="cls-6" points="274.62 1057.38 235.45 1034.77 235.45 1080 274.62 1057.38"/>
              <polygon class="cls-2" points="314.1 1057.38 274.92 1034.77 274.92 1080 314.1 1057.38"/>
              <polygon class="cls-3" points="196.28 1057.38 157.11 1034.77 157.11 1080 196.28 1057.38"/>
            </g>
            <g>
              <polygon class="cls-5" points="392.6 1057.38 353.43 1034.77 353.43 1080 392.6 1057.38"/>
              <polygon class="cls-6" points="432.08 1057.38 392.91 1034.77 392.91 1080 432.08 1057.38"/>
              <polygon class="cls-2" points="471.56 1057.38 432.39 1034.77 432.39 1080 471.56 1057.38"/>
              <polygon class="cls-3" points="353.75 1057.38 314.58 1034.77 314.58 1080 353.75 1057.38"/>
            </g>
            <g>
              <polygon class="cls-5" points="550.07 1057.38 510.89 1034.77 510.89 1080 550.07 1057.38"/>
              <polygon class="cls-6" points="589.55 1057.38 550.37 1034.77 550.37 1080 589.55 1057.38"/>
              <polygon class="cls-2" points="629.03 1057.38 589.85 1034.77 589.85 1080 629.03 1057.38"/>
              <polygon class="cls-3" points="511.21 1057.38 472.04 1034.77 472.04 1080 511.21 1057.38"/>
            </g>
            <g>
              <polygon class="cls-5" points="707.53 1057.38 668.36 1034.77 668.36 1080 707.53 1057.38"/>
              <polygon class="cls-6" points="747.01 1057.38 707.84 1034.77 707.84 1080 747.01 1057.38"/>
              <polygon class="cls-2" points="786.49 1057.38 747.32 1034.77 747.32 1080 786.49 1057.38"/>
              <polygon class="cls-3" points="668.68 1057.38 629.5 1034.77 629.5 1080 668.68 1057.38"/>
            </g>
            <g>
              <polygon class="cls-5" points="865 1057.38 825.82 1034.77 825.82 1080 865 1057.38"/>
              <polygon class="cls-6" points="904.48 1057.38 865.3 1034.77 865.3 1080 904.48 1057.38"/>
              <polygon class="cls-2" points="943.96 1057.38 904.78 1034.77 904.78 1080 943.96 1057.38"/>
              <polygon class="cls-3" points="826.14 1057.38 786.97 1034.77 786.97 1080 826.14 1057.38"/>
            </g>
          </g>
        </g>
      </g>
    </g>
  </g>
</svg>